/* XPM */
static char *_600076101119[] = {
/* columns rows colors chars-per-pixel */
"64 64 256 2 ",
"   c black",
".  c #0000A8",
"X  c #00A800",
"o  c #00A8A8",
"O  c #A80000",
"+  c #A800A8",
"@  c #A85400",
"#  c gray66",
"$  c gray33",
"%  c #5454FC",
"&  c #54FC54",
"*  c #54FCFC",
"=  c #FC5454",
"-  c #FC54FC",
";  c #FCFC54",
":  c gray99",
">  c #ECECEC",
",  c gainsboro",
"<  c #D0D0D0",
"1  c #C0C0C0",
"2  c #B4B4B4",
"3  c gray66",
"4  c #989898",
"5  c gray55",
"6  c #7C7C7C",
"7  c gray44",
"8  c #646464",
"9  c gray33",
"0  c #484848",
"q  c gray22",
"w  c #2C2C2C",
"e  c #202020",
"r  c #FC0000",
"t  c #EC0000",
"y  c #E00000",
"u  c #D40000",
"i  c #C80000",
"p  c #BC0000",
"a  c #B00000",
"s  c #A40000",
"d  c #980000",
"f  c #880000",
"g  c #7C0000",
"h  c #700000",
"j  c #640000",
"k  c #580000",
"l  c #4C0000",
"z  c #400000",
"x  c #FCD8D8",
"c  c #FCB8B8",
"v  c #FC9C9C",
"b  c #FC7C7C",
"n  c #FC5C5C",
"m  c #FC4040",
"M  c #FC2020",
"N  c #FC0000",
"B  c #FCA85C",
"V  c #FC9840",
"C  c #FC8820",
"Z  c #FC7800",
"A  c #E46C00",
"S  c #CC6000",
"D  c #B45400",
"F  c #9C4C00",
"G  c #FCFCD8",
"H  c #FCFCB8",
"J  c #FCFC9C",
"K  c #FCFC7C",
"L  c #FCF85C",
"P  c #FCF440",
"I  c #FCF420",
"U  c #FCF400",
"Y  c #E4D800",
"T  c #CCC400",
"R  c #B4AC00",
"E  c #9C9C00",
"W  c #848400",
"Q  c #706C00",
"!  c #585400",
"~  c #404000",
"^  c #D0FC5C",
"/  c #C4FC40",
"(  c #B4FC20",
")  c #A0FC00",
"_  c #90E400",
"`  c #80CC00",
"'  c #74B400",
"]  c #609C00",
"[  c #D8FCD8",
"{  c #BCFCB8",
"}  c #9CFC9C",
"|  c #80FC7C",
" . c #60FC5C",
".. c #40FC40",
"X. c #20FC20",
"o. c #00FC00",
"O. c #00FC00",
"+. c #00EC00",
"@. c #00E000",
"#. c #00D400",
"$. c #04C800",
"%. c #04BC00",
"&. c #04B000",
"*. c #04A400",
"=. c #049800",
"-. c #048800",
";. c #047C00",
":. c #047000",
">. c #046400",
",. c #045800",
"<. c #044C00",
"1. c #044000",
"2. c #D8FCFC",
"3. c #B8FCFC",
"4. c #9CFCFC",
"5. c #7CFCF8",
"6. c #5CFCFC",
"7. c #40FCFC",
"8. c #20FCFC",
"9. c #00FCFC",
"0. c #00E4E4",
"q. c #00CCCC",
"w. c #00B4B4",
"e. c #009C9C",
"r. c #008484",
"t. c #007070",
"y. c #005858",
"u. c #004040",
"i. c #5CBCFC",
"p. c #40B0FC",
"a. c #20A8FC",
"s. c #009CFC",
"d. c #008CE4",
"f. c #007CCC",
"g. c #006CB4",
"h. c #005C9C",
"j. c #D8D8FC",
"k. c #B8BCFC",
"l. c #9C9CFC",
"z. c #7C80FC",
"x. c #5C60FC",
"c. c #4040FC",
"v. c #2024FC",
"b. c #0004FC",
"n. c #0000FC",
"m. c #0000EC",
"M. c #0000E0",
"N. c #0000D4",
"B. c #0000C8",
"V. c #0000BC",
"C. c #0000B0",
"Z. c #0000A4",
"A. c #000098",
"S. c #000088",
"D. c #00007C",
"F. c #000070",
"G. c #000064",
"H. c #000058",
"J. c #00004C",
"K. c #000040",
"L. c #282828",
"P. c #FCE034",
"I. c #FCD424",
"U. c #FCCC18",
"Y. c #FCC008",
"T. c #FCB400",
"R. c #B420FC",
"E. c #A800FC",
"W. c #9800E4",
"Q. c #8000CC",
"!. c #7400B4",
"~. c #60009C",
"^. c #500084",
"/. c #440070",
"(. c #340058",
"). c #280040",
"_. c #FCD8FC",
"`. c #FCB8FC",
"'. c #FC9CFC",
"]. c #FC7CFC",
"[. c #FC5CFC",
"{. c #FC40FC",
"}. c #FC20FC",
"|. c #FC00FC",
" X c #E000E4",
".X c #C800CC",
"XX c #B400B4",
"oX c #9C009C",
"OX c #840084",
"+X c #6C0070",
"@X c #580058",
"#X c #400040",
"$X c #FCE8DC",
"%X c #FCE0D0",
"&X c #FCD8C4",
"*X c #FCD4BC",
"=X c #FCCCB0",
"-X c #FCC4A4",
";X c #FCBC9C",
":X c #FCB890",
">X c #FCB080",
",X c #FCA470",
"<X c #FC9C60",
"1X c #F0945C",
"2X c #E88C58",
"3X c #DC8854",
"4X c #D08050",
"5X c #C87C4C",
"6X c #BC7848",
"7X c #B47044",
"8X c #A86840",
"9X c #A0643C",
"0X c #9C6038",
"qX c #905C34",
"wX c #885830",
"eX c #80502C",
"rX c #744C28",
"tX c #6C4824",
"yX c #5C4020",
"uX c #543C1C",
"iX c #483818",
"pX c #403018",
"aX c #382C14",
"sX c #28200C",
"dX c #600064",
"fX c #006464",
"gX c #006060",
"hX c #00001C",
"jX c #00002C",
"kX c #302410",
"lX c #480048",
"zX c #500050",
"xX c #000034",
"cX c gray11",
"vX c #4C4C4C",
"bX c gray36",
"nX c gray25",
"mX c gray19",
"MX c #343434",
"NX c #D8F4F4",
"BX c #B8E8E8",
"VX c #9CDCDC",
"CX c #74C8C8",
"ZX c #48C0C0",
"AX c #20B4B4",
"SX c #20B0B0",
"DX c #00A4A4",
"FX c #009898",
"GX c #008C8C",
"HX c #008484",
"JX c #007C7C",
"KX c #007878",
"LX c #007474",
"PX c #007070",
"IX c #006C6C",
"UX c #980088",
/* pixels */
"6 6 6 6 6 5 4 # # 5 5 nX  7 6 4 # # 5 # 5 # # # # # 5 # # # 6 nX  5 6 # 5 # # # # 4 # 4 4 5 5 nX  5 5 5 # 5 $   nX8 7 5 6 # 5 6 ",
"6 6 6 6 6 5 # 5 4 5 7 q   q 7 4 6 7 6 5 6 4 # 4 5 5 # # # 6 $ cX  7 6 # # 4 # # 5 6 6 7 6 5 6 q   7 6 5 # 5 $   mX7 $ 7 5 # 6 8 ",
"6 6 6 6 5 7 7 7 6 5 6 8   $ 5 # # 6 5 6 8 6 5 # # # # # 5 7 $ L.  7 5 # # # 5 5 7 7 5 # # # 6 $   8 5 # 4 7 $   7 4 6 6 5 6 $ $ ",
"5 6 6 6 5 5 6 7 $ 7 8 $   $ 6 4 4 7 5 5 6 5 5 4 5 4 5 8 $ $ 7 $   6 5 4 5 5 6 5 6 5 5 5 7 5 8 8   7 6 # 5 5 $   $ 6 5 5 # 7 7 $ ",
"7 6 6 6 7 7 0 8 7 7 8 nX  7 7 5 5 5 5 4 5 5 6 7 7 8 0 $ 7 6 5 7   5 5 # # 6 7 7 6 5 # 4 5 5 0 $   $ 7 5 6 6 8   nX7 7 5 6 8 8 0 ",
"7 nX$ nX$ 0 $ 6 6 8 nXnX  7 6 # 4 5 5 # 5 # 5 7 5 6 6 5 # # 5 $   6 5 5 6 8 5 4 5 4 5 5 7 6 $ $   8 6 5 5 7 $   0 $ 7 7 8 nXmXnX",
"$ $ 0 $ $ 8 7 6 6 8 mXmX  0 7 7 6 5 5 5 6 5 6 5 5 5 5 5 5 6 5 0   7 8 7 7 6 6 7 $ 6 7 7 7 $ 0 0   mX6 $ 7 $ 0   L.L.$ $ 0 nX$ $ ",
"7 7 nX7 7 5 5 5 7 7 mXq   $ 4 # # 6 7 5 4 4 4 4 4 6 5 4 5 6 6 q   0 q $ $ $ nXnX0 $ 8 nX0 $ 7 0   mX0 $ $ 0 L.  mXnX0 0 7 $ 8 $ ",
"6 7 8 6 5 5 8 5 $ 8 mXmX  8 6 6 7 7 5 5 5 4 7 5 4 5 5 4 7 5 6 nX                                                0 $ nX$ 7 6 6 $ ",
"7 8 8 8 7 7 7 6 $ 8 q L.  q 7 5 5 6 # 6 5 5 6 4 4 5 5 4 6 6 8 nX  7 $ 6 7 8 6 $ $ q   8 7 8 mXmX8 7 8 8 8 0 cX  mX$ $ 8 8 7 8 $ ",
"5 6 8 6 5 6 8 7 8 7 q q   mX$ 6 6 7 5 7 5 4 5 5 5 6 6 6 6 7 $ q   0 7 4 5 7 6 7 5 $   $ 6 6 7 $ 8 5 5 6 6 $ cX  nX8 7 6 7 7 8 8 ",
"7 7 8 7 7 $ 7 7 $ $ 0 $   0 $ $ 8 6 6 6 6 6 6 6 6 6 6 6 6 8 $ mX  6 # # 7 7 7 7 7 nX  7 6 5 6 7 5 6 6 6 4 8 $   0 7 7 5 6 7 8 $ ",
"$ 7 8 7 $ $ $ 8 $ 0 0 L.  q $ 0 8 7 8 7 7 7 7 7 8 $ 8 $ $ $ $ nX  7 6 $ $ 7 7 6 8 0   $ $ 8 7 7 6 7 6 6 5 7 0   0 7 6 6 $ 8 $ q ",
"nXq nXq 0 0 q $ nXmXmXcX  nX$ $ $ $ $ 7 8 $ $ nXnX0 q q nX0 q cX  7 7 7 8 7 7 $ nXnX  mXq 8 $ $ 7 6 7 6 6 7 nX  0 $ 8 0 mXmXL.q ",
"nXnXmXnXnXL.nX0 q mXcXcX  L.0 8 $ q q mXmXq 0 $ 8 $ nXnX0 q mXcX  $ $ $ q 0 nXq nX0   $ L.0 $ 0 $ 0 $ 6 8 8 $   nXq q mXcXq q 8 ",
"                                                                                      0 0 $ nXq 0 $ $ 8 0 $ 8                   ",
"8 8 8 8 8 8 7 $ 7 7 7 8 $ q 0   $ 7 6 6 7 8 7 $ 8 $   q 0 $ $ $ mX0 $ 0 0 $ 0 0 L.cX  0 8 7 $ $ $ $ nX8 $ $ 8   $ 8 $ 8 nX0 0 $ ",
"7 8 8 8 7 6 7 8 7 $ $ 6 7 8 nX  8 $ 8 6 8 6 7 6 5 nX  q $ 8 7 7 7 7 8 $ $ 8 8 8 0 cX  0 7 7 0 $ q 0 nX8 7 8 $   $ 7 7 7 0 7 7 $ ",
"6 7 7 7 6 7 7 7 7 7 6 6 7 0 L.  $ 0 8 6 8 7 7 5 6 q   nX7 7 5 8 7 6 6 8 6 5 7 8 0 mX  nX8 8 7 7 $ 8 mXnX8 0 nX  0 6 7 7 $ 7 $ 7 ",
"8 $ 7 $ 8 7 7 7 6 7 7 nXq q L.  0 7 7 7 $ 6 7 8 0 L.  q 7 $ 7 8 6 7 7 6 6 6 0 $ $ 0   q $ $ 7 7 $ $ 0 $ $ $ 8   $ 8 7 7 7 7 7 7 ",
"7 7 7 7 7 7 8 7 8 $ $ q 0 0 nX  8 6 8 6 5 6 8 $ $ mX  nX7 8 7 7 6 6 7 7 7 $ $ 7 0 0   $ nX$ $ nX$ $ 8 $ q nX0   0 7 7 8 7 $ 7 7 ",
"$ $ nX$ $ $ $ $ mXq mXL.0 nXq cX0 0 $ 8 $ q q q mXq   0 8 8 $ 8 7 6 5 8 $ 0 8 7 q q   0 L.nXq q nXnXnXnX0 q $   0 $ 0 $ $ q 8 $ ",
"0 $ $ 8 0 $ q 0 q $ nXnX$ 0 mX  mXq mXmXmXmXmXnXnXnX  0 8 8 7 $ 7 6 8 nX$ 8 7 8 0 0   $ $ $ $ nX0 7 7 7 $ mXnX  0 q q q nXq nXq ",
"                          cXcX                        0 8 $ 7 $ 8 $ nX$ 8 7 8 8 0 q   $ $ 8 6 $ $ 8 8 $ $ L.q                   ",
"  L.0 L.nXnXnXnX0 L.  q nX0 8 $ 0 $ 0 0 q q q q nXmX  mXnX$ $ 0 $ $ $ 8 8 7 8 $ nXmX  0 0 q $ q 0 $ 7 8 $ mXq   q nX$ 8 7 8 $ q ",
"  0 8 $ 7 7 $ $ $ L.  0 $ 8 7 8 8 $ $ 8 $ 8 8 $ q cX  mXq q $ $ 7 8 $ 7 7 7 $ $ nXmX  $ 8 nX7 8 8 $ 7 7 8 mXL.  mXnX8 7 8 $ $ L.",
"  $ 0 $ $ 8 8 $ $ q   mX$ 8 7 8 8 8 7 7 7 7 $ $ nXcX  q $ nX$ $ 8 8 8 7 $ 0 0 mXq nX  0 0 q 8 7 $ nX0 $ $ mXcX  cX$ 8 8 0 $ $ mX",
"  $ 8 8 $ 7 7 $ 0 mX  0 8 7 8 $ $ 0 0 0 0 0 mX$ $ L.  nX0 cXmXnXnX$ 0 0 0 nXnXnX0 nX  mXq $ 7 6 8 7 $ 7 nXmXcX  L.$ 8 $ 8 7 $ L.",
"  $ 8 8 $ $ 0 nX0 mX  mX0 nX0 nX0 nXnXq nX$ nX8 8 nX  mXmXL.mXnX0 0 nXq q mXmXq nXcX  mXnX8 8 7 $ 7 7 0 q 0 L.  cX0 7 7 7 0 0 mX",
"  q 7 nX$ 7 7 0 $ cX  q nXmXnXmXq nX$ 0 8 8 nX$ $ 0           cXcXcXcXcXcXcXcXcX      0 $ 8 $ 7 8 8 $ nX0 nXmX  cX$ 8 $ 8 $ 0 mX",
"  q 8 0 7 $ q 0 0 cX  q q 0 $ $ 7 8 8 $ 7 8 $ $ $ 0   q q 0 L.q q mXcXcXL.L.q nXnXL.  0 0 nX0 $ q 0 q q nXnXnX  L.q nX0 q q mXq ",
"  $ 7 8 $ $ $ $ L.cX  nXnXnX0 $ 8 $ $ $ 8 8 $ $ 0 mX  q $ $ q nXq q L.q L.nX$ $ nXcX  cXL.mXmXmXmXmXcXq q q cX  cXcXq mXL.mXL.L.",
"  0 $ $ $ 0 0 q L.q   0 0 0 0 mXnXnX0 0 0 0 0 nXmXmX  mXq 0 $ $ nXnX0 8 $ 8 $ 8 nXcX                                            ",
"  L.q q L.L.mXL.mXmX  L.cXq mXmXL.cXcXL.mXmXq mXmXcX  L.L.q nXq nXnXnX0 nX0 q nXq L.  mXq nXnXnX0 mXmXmXL.q q 0 0 0   L.mXq nXnX",
"  cXcXL.L.L.mXmXmXcX  cXcXL.L.mXL.cXL.cXcXcXcXcXcXcX  nXL.L.nX$ nXnXq $ 0 0 nX0 nXcX  q q $ nX$ 0 $ nXnX$ $ $ $ 0 q   nXnX$ $ nX",
"                                                      mXcXmXmXnX0 $ nX0 q 0 0 0 q L.  0 $ 8 0 8 $ $ $ 8 8 $ $ $ $ mX  nXnX$ $ 0 ",
"  q mXq L.nXnX0 nX0 nXmXnXnX0 0 nX0 0 mXq   q mX0 L.  mXmXq mXq 0 0 $ nX$ $ 0 0 q cX  q nX0 $ 8 $ $ 8 8 8 8 $ 8 nXcX  0 0 $ $ nX",
"  nXnX0 q nX$ 0 $ 8 $ 0 8 $ $ 0 0 nXnXq L.  8 0 $ L.  q 0 0 nXnXq $ 8 0 8 $ 0 0 q L.  q nX$ nX0 $ $ $ 8 $ 0 0 $ q cX  nXnX0 $ 0 ",
"  mXL.q nXmXmXq 0 0 q nX$ nXq nXnX0 0 cXcX  $ nXq L.  nXnX0 0 nXmXmXq nXq nXnXnXmXmX  cXnX$ $ 0 $ $ $ $ $ 0 nX0 nXcX  L.nX8 $ 0 ",
"  mXmXnX0 q L.cXmXnXnX0 nXq nX$ nX$ nXcXcX  $ $ q mX  mXL.mXL.q mXmXq L.cXL.L.cXL.mX  L.mX0 nXnXnX0 nXnXq q nX$ 0 cX  0 nX0 q 0 ",
"  q 0 $ $ 0 q L.mX$ 0 $ $ $ $ q L.nXq L.L.  nXL.cXcX  cXcXmXq q mXL.cXcXcXcXcXcXL.mX  L.mXnX0 q nXnXL.q q $ $ $ mXcX  mXL.$ $ 0 ",
"  q nX0 0 nX0 L.L.mXmX0 nXnXmXL.mXmXnXL.cX                                            mXmXnX$ q $ q nX0 q 0 q mXcXL.  0 $ 8 q nX",
"  L.mXq mXmXq q q q q q q L.L.L.L.L.cXcXmX  nXq nX0 0 $ 0 nX  0 0 0 nXnX0 q L.q nXq   mXq 0 0 q nXq nXnXmXq L.cXcXL.  mXnX0 $ nX",
"  L.L.mXmXmXL.L.nXnXq mXq mXmXcXq L.cXL.mX  0 $ $ 8 $ 8 $ nX  $ $ $ $ 0 $ 0 $ q nXq   q nXnX0 $ $ 0 0 nXq L.cXcXcXq   nXq q nXnX",
"  q q nX0 q mXL.q mXq mXmXL.q q L.cXcXmXmX  nX$ 0 $ 0 $ nXq   0 nX0 nXq nXmXq L.nXmX  nX0 nXq nXq q q mXq 0 q L.L.cX  L.q $ $ nX",
"  L.q mXL.L.L.cXL.L.mXL.cXL.L.cXcXcXmXL.cX  L.nXmXmXnX$ nXL.cX0 nXnXnXnXnXnXq q mXL.  L.mXL.cXL.L.L.cXmXq q mXL.cXcX  mXnXq nXmX",
"  cXcXL.cXL.L.cXL.cXcXcXcXcXcXcXL.mXL.cX    L.L.cXcXnX0 nXmXcXL.cXcXcXL.cXL.cXmXL.cX  cX  cX  cXcXcXcXcXcXL.cXcXcX    cXcXcXcXcX",
"                                            q mXq nX0 q nXmXcX                                                                  ",
"mXL.L.L.mXmXL.  q $ nX0 0 0 0 nX0 0 nXmXL.  mXq 0 0 nXq 0 L.  cX0 q q nXmX  cXmXnXmXq q mXL.mX  cXcXL.cXcXL.q mXL.L.mXcXmXnXq q ",
"0 $ nX$ 0 nXL.  0 $ nX$ nXnXq 0 $ nXnXq L.  q nX0 0 0 L.L.cX  q $ $ $ 0 cX  mX$ $ $ 0 q nXL.mX  cXcXq q mXmXnXq nX0 $ 0 nX0 q nX",
"0 $ nX$ 0 nXcX  q nXq L.mXq L.mXmXL.mXcXcX  nXq q mXq q q cX  nX$ 0 0 0 L.  q 0 0 q nXnXq cXL.  L.q nX0 nXq mXmXq nXq mXnX0 $ 0 ",
"0 0 $ 0 0 nXcX  q q mXmXq L.L.mXq mXmXcXmX  L.L.q q nXnXmXcX  q 0 $ $ $ L.  q q $ nXnXq L.cXcX  cXL.mXnXnX0 mXmXmXmXq q nXnX0 0 ",
"$ 0 0 0 $ 0 L.  nXmXmXL.L.cXmXmXmXmXcXcXcX  cXq nX0 nXL.cXcX  q 0 0 $ nXL.  mXq $ nXq q mXcXcX  cXnX0 0 nX0 nXnX0 nX0 0 nX0 $ 0 ",
"q mXnXmXq nXL.  L.cXcXcXL.L.mXL.mXmXq cXcX  L.nXnXnXq L.L.L.  mX0 nX0 q mX  q 0 nXq L.mXL.cXcX  L.q nXq q 0 nXnX0 0 0 $ nX0 $ 0 ",
"$ $ nX$ $ q cX                              mXq mX0 nXcXL.cX  nX0 nX$ q L.  L.0 0 nXmXmXL.cXcX  L.mXnXmXmXnXnXq nX0 0 nX0 nXnX0 ",
"q nX$ nXq mXL.  cXcXL.mXmXq L.mXL.mXL.cXcX  nXq mXnXmXcXmXcX  q 0 0 $ q L.  mXq mXcXL.L.cXcXcX  cXL.q q mXL.mXmXmXL.L.nXL.L.mXq ",
"L.mXq mXL.cXcX  cXq nX0 nX0 q nXq nXmXcXL.  q mXq mXL.L.mXL.cXq nXnX0 q L.  cXcXcXL.L.nXq cXcX  L.cXL.mXmXL.q q 0 nX0 q q mXmXL.",
"mXL.L.L.mXmXmX  L.q q q q nXnXq 0 mXL.cXL.  L.L.L.L.mXnXq mX  mXmX0 $ nXL.  cXcXq q q nXq cXcX  cXcXmXmXL.nX$ $ q q nX0 nXnXnXnX",
"q nX0 nXq L.cX  mXmXmXmXmXq mXmXnXmXL.cXL.  L.cXq nX0 nXmXmX  mXnX0 0 q cX  L.q q nX0 nXq cXcX  mXq q nX0 0 0 nX0 0 $ 0 nXnX0 0 ",
"q nXmXnXq cXcX  cXcXcXcXL.L.q mXq mXmXcXL.  L.mX$ 0 $ nXq L.  mXnXnX0 q cX  q $ $ 0 nX0 nXL.cX  L.nX$ 0 q nX0 0 q q 0 nXmXnXnXnX",
"nX$ q $ nXmXmX  cXcXcXL.L.mXmXL.mXL.cXcXcX  mXnXnXq nXnXq cX  L.q nXq L.cX  mXnXnXnX$ nXL.cXcX  nXnXnXq q nXnXq mXq q q mXq q q ",
"nX0 q 0 nXmXL.  cXcXL.mXmXL.L.L.mXcXcXcXL.  q L.mXq mXmXmXcX  mXq $ q mXcX  q q mXcXL.cXcXcXL.  cXmX0 q mXL.mXmXL.mXq mXL.L.mXmX",
"cXmXnXmXcXcXcX  cXcXmXmXmXL.L.L.L.L.cXcXcX  L.cXL.L.cXL.cXcX  cXq q cXcXcX  L.L.cXcXL.L.L.cXcX  cXL.mXmXL.L.L.L.cXL.cXcXcXL.L.L.",
"cXcXL.cXcXmXmX  mXL.cXcXcXcXcXcXcXcXcXcXcX                    cXcXcXcXcXL.                      cXcXcXcXcXcXcXcXcXcXcXcXcXcXcXcX"
};
