/* XPM */
static char *_600077466803[] = {
/* columns rows colors chars-per-pixel */
"64 64 256 2 ",
"   c black",
".  c #0000A8",
"X  c #00A800",
"o  c #00A8A8",
"O  c #A80000",
"+  c #A800A8",
"@  c #A85400",
"#  c gray66",
"$  c gray33",
"%  c #5454FC",
"&  c #54FC54",
"*  c #54FCFC",
"=  c #FC5454",
"-  c #FC54FC",
";  c #FCFC54",
":  c gray99",
">  c #ECECEC",
",  c gainsboro",
"<  c #D0D0D0",
"1  c #C0C0C0",
"2  c #B4B4B4",
"3  c gray66",
"4  c #989898",
"5  c gray55",
"6  c #7C7C7C",
"7  c gray44",
"8  c #646464",
"9  c gray33",
"0  c #484848",
"q  c gray22",
"w  c #2C2C2C",
"e  c #202020",
"r  c #FC0000",
"t  c #EC0000",
"y  c #E00000",
"u  c #D40000",
"i  c #C80000",
"p  c #BC0000",
"a  c #B00000",
"s  c #A40000",
"d  c #980000",
"f  c #880000",
"g  c #7C0000",
"h  c #700000",
"j  c #640000",
"k  c #580000",
"l  c #4C0000",
"z  c #400000",
"x  c #FCD8D8",
"c  c #FCB8B8",
"v  c #FC9C9C",
"b  c #FC7C7C",
"n  c #FC5C5C",
"m  c #FC4040",
"M  c #FC2020",
"N  c #FC0000",
"B  c #FCA85C",
"V  c #FC9840",
"C  c #FC8820",
"Z  c #FC7800",
"A  c #E46C00",
"S  c #CC6000",
"D  c #B45400",
"F  c #9C4C00",
"G  c #FCFCD8",
"H  c #FCFCB8",
"J  c #FCFC9C",
"K  c #FCFC7C",
"L  c #FCF85C",
"P  c #FCF440",
"I  c #FCF420",
"U  c #FCF400",
"Y  c #E4D800",
"T  c #CCC400",
"R  c #B4AC00",
"E  c #9C9C00",
"W  c #848400",
"Q  c #706C00",
"!  c #585400",
"~  c #404000",
"^  c #D0FC5C",
"/  c #C4FC40",
"(  c #B4FC20",
")  c #A0FC00",
"_  c #90E400",
"`  c #80CC00",
"'  c #74B400",
"]  c #609C00",
"[  c #D8FCD8",
"{  c #BCFCB8",
"}  c #9CFC9C",
"|  c #80FC7C",
" . c #60FC5C",
".. c #40FC40",
"X. c #20FC20",
"o. c #00FC00",
"O. c #00FC00",
"+. c #00EC00",
"@. c #00E000",
"#. c #00D400",
"$. c #04C800",
"%. c #04BC00",
"&. c #04B000",
"*. c #04A400",
"=. c #049800",
"-. c #048800",
";. c #047C00",
":. c #047000",
">. c #046400",
",. c #045800",
"<. c #044C00",
"1. c #044000",
"2. c #D8FCFC",
"3. c #B8FCFC",
"4. c #9CFCFC",
"5. c #7CFCF8",
"6. c #5CFCFC",
"7. c #40FCFC",
"8. c #20FCFC",
"9. c #00FCFC",
"0. c #00E4E4",
"q. c #00CCCC",
"w. c #00B4B4",
"e. c #009C9C",
"r. c #008484",
"t. c #007070",
"y. c #005858",
"u. c #004040",
"i. c #5CBCFC",
"p. c #40B0FC",
"a. c #20A8FC",
"s. c #009CFC",
"d. c #008CE4",
"f. c #007CCC",
"g. c #006CB4",
"h. c #005C9C",
"j. c #D8D8FC",
"k. c #B8BCFC",
"l. c #9C9CFC",
"z. c #7C80FC",
"x. c #5C60FC",
"c. c #4040FC",
"v. c #2024FC",
"b. c #0004FC",
"n. c #0000FC",
"m. c #0000EC",
"M. c #0000E0",
"N. c #0000D4",
"B. c #0000C8",
"V. c #0000BC",
"C. c #0000B0",
"Z. c #0000A4",
"A. c #000098",
"S. c #000088",
"D. c #00007C",
"F. c #000070",
"G. c #000064",
"H. c #000058",
"J. c #00004C",
"K. c #000040",
"L. c #282828",
"P. c #FCE034",
"I. c #FCD424",
"U. c #FCCC18",
"Y. c #FCC008",
"T. c #FCB400",
"R. c #B420FC",
"E. c #A800FC",
"W. c #9800E4",
"Q. c #8000CC",
"!. c #7400B4",
"~. c #60009C",
"^. c #500084",
"/. c #440070",
"(. c #340058",
"). c #280040",
"_. c #FCD8FC",
"`. c #FCB8FC",
"'. c #FC9CFC",
"]. c #FC7CFC",
"[. c #FC5CFC",
"{. c #FC40FC",
"}. c #FC20FC",
"|. c #FC00FC",
" X c #E000E4",
".X c #C800CC",
"XX c #B400B4",
"oX c #9C009C",
"OX c #840084",
"+X c #6C0070",
"@X c #580058",
"#X c #400040",
"$X c #FCE8DC",
"%X c #FCE0D0",
"&X c #FCD8C4",
"*X c #FCD4BC",
"=X c #FCCCB0",
"-X c #FCC4A4",
";X c #FCBC9C",
":X c #FCB890",
">X c #FCB080",
",X c #FCA470",
"<X c #FC9C60",
"1X c #F0945C",
"2X c #E88C58",
"3X c #DC8854",
"4X c #D08050",
"5X c #C87C4C",
"6X c #BC7848",
"7X c #B47044",
"8X c #A86840",
"9X c #A0643C",
"0X c #9C6038",
"qX c #905C34",
"wX c #885830",
"eX c #80502C",
"rX c #744C28",
"tX c #6C4824",
"yX c #5C4020",
"uX c #543C1C",
"iX c #483818",
"pX c #403018",
"aX c #382C14",
"sX c #28200C",
"dX c #600064",
"fX c #006464",
"gX c #006060",
"hX c #00001C",
"jX c #00002C",
"kX c #302410",
"lX c #480048",
"zX c #500050",
"xX c #000034",
"cX c gray11",
"vX c #4C4C4C",
"bX c gray36",
"nX c gray25",
"mX c gray19",
"MX c #343434",
"NX c #D8F4F4",
"BX c #B8E8E8",
"VX c #9CDCDC",
"CX c #74C8C8",
"ZX c #48C0C0",
"AX c #20B4B4",
"SX c #20B0B0",
"DX c #00A4A4",
"FX c #009898",
"GX c #008C8C",
"HX c #008484",
"JX c #007C7C",
"KX c #007878",
"LX c #007474",
"PX c #007070",
"IX c #006C6C",
"UX c #980088",
/* pixels */
"fXfXfXfXfXfXfXfXfXfXfXfXfXfXfXfXfXfXfXfXfXfXfXfXfXfXfXfXfXfXfXfXfXfXfXfXfXfXfXfXfXfXfXfXfXfXfXfXfXfXfXfXfXfXfXfXfXfXfXfXfXfXfXfX",
"fXfXfXfXfXfXfXfXfXfXfXfXfXfXfXfXfXfXfXfXfXfXfXfXfXfXfXfXfXfXfXfXfXfXfXfXfXfXfXfXfXfXfXfXfXfXfXfXfXfXfXfXfXfXfXfXfXfXfXfXfXfXfXfX",
"fXfXfXfXfXfXfXfXfXfXfXfXfXfXfXfXfXfXfXfXfXfXfXfXfXfXfXfXfXfXfXfXfXfXfXfXfXfXfXfXfXfXfXfXfXfXfXfXfXfXfXfXfXfXfXfXfXfXfXfXfXfXfXfX",
"fXfXfXfXfXfXfXfXfXfXfXfXfXfXfXfXfXfXfXfXfXfXfXfXfXfXfXfXgXgXgXgXgXgXgXfXgXgXfXfXfXfXfXfXfXfXfXfXfXfXfXfXfXfXfXfXfXfXfXfXfXfXfXfX",
"fXfXfXfXfXfXfXfXfXfXfXfXfXfXfXfXfXfXfXfXfXfXfXfXgXgXgXgXgXgXgXgXfXfXfXfXfXfXfXfXfXfXfXfXfXfXfXfXfXfXgXgXfXgXfXfXfXfXfXfXfXfXfXfX",
"fXfXfXfXfXfXfXfXfX0 q w w w w q fXfXfXfXfXfXfXfXfXfXfXfXfXfXfXfXfXfXfXfXfXfXfXfXfXfXfXfXfXgXgXgXgXgXgXgXgXgXgXgXgXgXgXfXfXfXfXfX",
"fXgXgXgXgXgX0 q w w w w w w w w q y.gXgXgXgXgXgXiXiXiXgXfXfXfXfXfXfXfXgXgXgXgXgXgXgXgXfXgXfXgXgXgXgXgXgXgXgXgXgXgXgXgXgXgXgXgXgX",
"fXfXgXgXgXq w w w w w w w w w w w q q q q q q iXiXiXiXiXgXgXgXfXgXfXfXfXfXfXfXfXfXfXfXfXfXfXfXfXfXfXgXgXfXfXfXfXfXgXgXgXfXgXgXgX",
"fXfXfX0 q w w w L.w w w e e L.L.L.w w q q q q iXiXaXaXaXaXq fXfXfXfXgXgXgXgXgXgXgXgXgXgXgXgXgXgXgXgXgXq w L.e e gXgXgXgXgXgXgXgX",
"gX0 q L.L.L.L.L.L.w L.L.e e e e L.w w L.w q q aXaXaXiXiXaXaXaXq q q q q q q q yXpXkXkXpXnXnXnXnXnXMXw L.L.e e e e MXgXgXgXgXgXgX",
"w w w L.w w cXcXL.L.w e L.L.w L.L.L.L.w w w w q aXaXiXiXiXaXaXkXw q q q q q pXkXaXaXkXaXkXaXpXnXnXe L.L.e q L.e e MXnXnXnXnXq w ",
"w L.L.L.w w cXcXL.L.w e e w w L.L.L.L.L.L.w e q w aXaXiXaXaXkXsXw q q q yXkXkXaXkXkXkXkXaXaXaXpXnXe e e e w L.L.e MXnXnXq w w w ",
"L.L.L.w L.L.L.L.e e e L.e L.e e e cXcXcXL.L.e w q kXaXaXaXkXsXsXw q q yXkXaXkXkXsXkXsXkXkXaXaXkXnXMXe e e L.L.e e MXnXw L.L.w L.",
"w L.L.w w L.L.w cXcXcXe L.e L.e e cXcXcXL.w e cXq q kXkXkXsXsXw w q pXaXaXkXkXsXkXkXkXsXsXkXkXkXsXpXMXe e e e e MXMXL.L.L.e L.L.",
"cXcXL.L.L.e L.e e cXcXL.e L.L.L.L.e e cXcXL.e cXw q q w w w w w pXkXkXaXaXkXsXsXkXaXaXkXsXsXsXsXsXsXpXMXe e e MXMXL.L.L.L.L.L.L.",
"w L.L.L.L.e e e e e e e L.L.w w L.L.L.e cXcXe cXcXq q q q q aXaXkXkXsXkXkXkXsXkXkXaXaXkXsXsXsXsXsXsXsXnXMXMXMXMXw L.L.w w L.e L.",
"w L.cXe e L.L.e cXe e e e L.L.L.L.L.w L.cXcXcXcXcXq q w kXkXaXaXkXkXsXkXkXkXsXsXkXkXkXkXsXsXsXsXkXsXsXsXnXnXnXnXw L.L.w L.L.e e ",
"cXcXcXL.L.w L.e e e L.e e cXcXe cXL.L.e e cXcXcXcXw w kXaXkXkXkXsXsXsXkXkXsXsXsXsXsXsXsXsXsXsXkXkXsXsXsXnXnX0 w L.L.L.w e e L.L.",
"w w e L.w L.e cXL.L.e L.e cXe e e e e e L.e cXcXcXw aXaXkXsXkXsXsXsXsXsXsXsXsXkXkXkXsXsXsXsXsXkXkXsXsXsXw w nXw L.L.L.L.e e L.L.",
"w e L.L.e e cXe L.L.e w e cXcXcXe L.e L.e e cXcXcXw aXaXkXkXsXsXkXsXkXsXsXsXsXkXkXkXsXsXkXsXsXsXsXsXkXsXw w q w L.e L.L.w L.L.e ",
"e L.L.e cXcXe L.w L.cXe e e cXe L.L.L.e cXe cXcXcXkXaXkXkXsXsXkXkXkXkXkXsXkXkXaXaXkXsXkXkXsXsXsXsXkXkXsXsXw q w L.e e e L.L.e L.",
"e e cXL.e cXe L.w L.cXcXcXcXe e L.w L.L.e cXcXcXe kXkXkXsXkXkXkXkXkXkXkXsXsXkXaXkXsXsXkXsXsXsXsXsXsXsXsXsXw q w L.L.e e e e e e ",
"cXL.e e e cXcXe L.e cXcXcXcXe L.e L.L.cXe cXcXcXe kXaXkXkXkXkXsXsXkXkXkXsXsXkXkXsXkXsXkXsXsXsXkXsXsXsXsXsXw q w L.L.L.e e e e L.",
"w cXL.e L.cXcXe e e cXcXe cXe e L.e e cXcXcXcXcXL.kXkXsXkXsXkXkXsXkXsXsXsXsXsXkXkXkXsXkXkXsXsXsXsXsXsXsXsXw w w L.L.e e cXcXcXe ",
"e L.L.e e cXcXe L.L.e cXcXcXcXe e cXcXcXcXcXcXe w kXkXsXsXkXsXkXsXsXkXsXsXsXsXsXsXsXsXkXsXsXsXsXsXsXsXsXcXw w e L.e e e w L.e L.",
"cXcXe cXw cXcXe L.L.e cXcXe cXcXcXe cXcXcXcXe L.q sXkXsXsXsXsXkXsXsXsXsXkXsXsXsXsXsXkXkXsXsXsXsXsXsXsXcXcXw w w e e e e L.L.cXcX",
"w e cXe w cXcXcXcXe cXcXe cXe cXcXcXcXcXcXe L.w q w sXsXsXkXkXkXsXsXsXsXsXsXsXsXkXsXsXsXsXsXsXsXsXsXcXcXw w q w e e e e e w cXL.",
"L.e cXcXcXcXcXcXcXcXcXcXcXcXcXcXcXcXcXcXe L.w q 0 q sXsXsXsXsXsXsXsXkXsXkXkXsXkXsXsXsXsXsXsXsXsXsXcXcXw w q nXq cXcXcXe cXL.cXe ",
"e cXcXcXcXcXcXcXe cXcXcXcXcXcXcXcXe e e L.w q 0 9 bXw sXsXsXsXsXsXsXkXkXkXsXsXsXsXsXsXsXsXsXsXcXcXcXw w q nX0 nXq cXcXe e e cXe ",
"cXe cXcXcXcXcXcXcXcXcXcXcXcXe e e L.L.w w q 0 9 bX8 0 w sXsXsXsXsXsXsXkXkXsXsXsXsXsXsXsXsXsXcXcXcXw MXMXq nX0 0 nXw e e cXcXcXcX",
"cXcXcXcXcXcXcXcXcXe e e e e L.L.w w MXiXiXiXiXq 9 8 bXvXw cXsXsXsXsXsXsXsXsXsXsXsXsXsXsXsXcXcXcXw MXq nXnX0 0 nXnXq e e cXe e e ",
"cXcXe e e L.L.L.L.L.w w w w w w MXiXiXiXaXaXiXiXq 9 9 vXnXq w w w cXcXsXsXsXsXsXsXsXcXcXw w uXyXyXyXiXiXuX0 nXnXq MXw e e e cXcX",
"cXL.L.L.w mXmXw w w MXMXMXnXq iXiXiXiXaXkXaXiXiXaXq 0 0 0 nXnXq MXMXw w w w w w w w w yXyXuXiXiXiXiXiXiXiXiXiXq MXmXmXw e e cXcX",
"w w w q q q mXw MXnX0 nXq iXiXiXaXiXiXaXaXaXaXaXaXaXq 0 0 0 q q mXq q MXMXMXMXMXMXyXyXyXuXiXiXiXuXiXiXuXiXiXiXiXmXmXMXq w e cXcX",
"q q mXq mXq mXmXL.nXnXq iXiXaXaXaXkXkXaXiXaXkXaXkXaXkXq 0 q q mXw mXL.w nXnXnXyXyXyXyXiXuXiXuXyXuXiXuXpXiXuXiXiXpXMXq nXnXcXcXcX",
"q mXmXq q mXw w e w q iXiXaXkXaXaXiXiXaXaXkXaXaXaXkXkXw 0 w q q mXw L.cX0 0 yXyXyXyXyXiXiXuXuXuXiXiXuXuXpXiXuXiXpXaXMXnX0 0 q q ",
"nXw mXmXL.w w L.e w iXiXaXaXkXkXaXiXiXaXkXkXkXkXsXsXsXsXnXq mXL.e e e L.0 yXuXyXuXiXuXuXiXiXiXiXiXuXuXiXpXiXuXiXpXaXMXnX0 vX0 0 ",
"0 L.e L.e e e e L.w iXaXaXiXaXkXkXaXaXaXkXkXaXkXsXsXsXsXw q mXL.e cXcXL.uXyXuXiXuXuXiXyXuXiXiXpXpXiXiXiXpXiXiXpXaXaXMXnX9 9 vX0 ",
"0 q L.e e e cXe L.iXiXiXaXaXaXkXkXkXkXkXsXaXkXaXkXsXsXcXw q q mXe cXL.w uXuXiXiXiXuXuXyXyXuXpXiXiXpXaXiXaXpXpXpXaXL.MXnX9 bX9 0 ",
"0 nXq L.L.L.L.w w iXiXiXkXaXkXkXaXaXaXkXsXkXaXkXkXsXsXcXw mXmXL.L.cXL.MXiXiXuXuXiXiXiXuXuXpXpXuXuXiXpXaXaXaXpXaXaXL.MXnX9 9 vX0 ",
"0 0 nXw w w w w iXaXaXaXaXkXkXaXaXiXaXkXsXkXkXkXkXsXcXe w L.mXe e L.w q w iXiXiXiXuXuXiXiXpXiXuXiXuXiXpXaXaXaXaXL.w nXnX9 vXvX0 ",
"iXiXq nX0 0 0 q iXkXaXaXaXkXkXkXaXaXkXkXsXsXsXkXsXcXe L.w mXw w w w MXnXq iXiXiXuXuXuXuXiXpXiXuXuXpXuXiXaXaXaXcXL.MXnX0 vXvX0 q ",
"iXpXiXMXnX0 0 iXaXaXkXiXiXaXkXkXkXkXkXsXsXsXsXsXcXe L.L.mXq q nXnXnXnXnXnXw iXuXiXiXuXiXiXpXpXiXpXiXiXpXpXaXaXL.w MXiXiXiXiXiXiX",
"pXaXiXaXMXnX0 aXaXaXkXiXiXaXkXsXsXsXkXkXsXsXcXcXe L.L.w w w w w w w q q 0 q pXiXiXpXiXiXpXpXpXpXpXiXuXiXpXaXcXL.iXiXiXpXiXiXiXiX",
"iXiXiXaXw nXnXaXaXaXkXkXaXaXkXsXsXsXsXsXcXcXe e L.e e L.L.L.L.L.L.L.L.e e 0 w pXiXiXpXpXpXpXiXuXaXaXiXpXpXaXcXiXiXpXiXiXiXpXiXiX",
"aXpXpXaXaXMXnXkXkXkXkXaXaXkXkXsXsXsXcXcXe e L.L.e L.w w w w w w w w w e cXw q w pXpXpXpXaXiXuXpXiXaXpXaXaXcXiXiXpXpXpXiXpXpXpXpX",
"pXaXpXkXaXw MXkXkXsXsXsXkXkXsXsXcXcXe e e L.L.L.L.w w w L.w L.w w w L.e e e w q w pXpXaXpXiXiXuXiXaXaXaXcXL.iXiXpXaXaXiXpXaXpXaX",
"pXaXaXaXaXkXw kXkXsXsXsXkXsXsXcXe e e L.L.L.L.w w w w L.w L.L.L.L.e e L.e e e w q w pXaXaXpXiXiXiXaXaXcXL.iXpXpXiXaXaXpXaXaXaXpX",
"pXpXaXkXkXkXw kXkXsXsXsXcXcXcXcXe L.L.cXL.L.w w L.L.L.w e e e L.L.e L.e e e e w w q w aXaXaXpXaXaXaXcXL.w iXiXaXpXiXiXpXpXpXaXaX",
"aXaXaXaXkXkXw w sXsXsXcXcXe e e w L.L.L.w w w L.L.e w e e e e e e e e e L.L.e e w nXq w aXaXaXaXaXcXL.w q pXpXpXkXkXaXaXpXpXaXkX",
"aXkXkXaXaXkXw MXw L.e e e e cXw e L.w w w L.e L.e e e cXcXe e cXe cXe cXL.L.cXcXcXnX0 q w L.L.L.L.L.w q q pXaXpXkXkXaXkXpXpXkXpX",
"aXaXkXaXkXkXw q nXw L.L.L.q w e L.w w L.L.e L.e e e cXcXcXcXcXe w e cXcXcXcXcXcXcXw nX0 9 nXnXq 0 q q nXnXaXaXaXkXaXkXkXpXpXaXpX",
"aXkXaXaXkXL.w q 0 nXnXMXq q w L.w L.e L.e e e e cXcXcXcXcXcXcXe e cXe e cXe cXcXcXe w 9 bX9 q 0 q q q q 0 aXaXaXaXaXkXkXaXaXkXaX",
"aXaXaXkXL.w MXq 0 0 nXnXq w L.w w e L.e w e e e cXcXe e e e cXcXcXcXe e e cXe cXcXe e 0 9 q 0 0 q q MXmXq q kXkXkXkXkXkXaXaXkXkX",
"kXkXkXL.L.w q q 0 9 9 9 q w L.L.L.L.e cXcXcXcXe cXe L.e L.e e e cXcXcXe e e cXcXcXcXe w 0 q 0 0 q MXmXmXmX0 q kXkXkXkXkXkXkXkXkX",
"kXkXL.L.w MXq nX0 8 bX9 q L.L.L.L.e e cXcXcXcXe cXe e L.L.L.e e e cXe cXcXe cXcXcXcXcXL.0 q q q MXq mXw w w 0 q w kXkXkXkXkXkXkX",
"w w w w MXq nXnX0 bX9 vXq L.e L.e e e cXe cXcXcXcXe L.L.L.e L.e cXe cXe e cXcXcXcXe cXe L.w q q mXMXmXw e w w w w w w w w w w w ",
"w w w MXq nXnX0 9 9 vXvXq L.e e e e cXcXcXcXe cXcXe e L.e L.e e L.e cXcXe e cXcXe e cXe L.L.q MXw MXMXw w w e w w w q q w w w w ",
"w L.L.w w L.L.L.L.q 0 0 q e e w L.w e cXcXcXe e cXcXcXe e e L.e cXL.e cXcXcXcXe e cXcXcXe L.q mXw mXmXw MXw e w w q q q q q w w ",
"e e e w L.e e e L.L.w q q cXe L.w e cXw e cXe e e cXcXcXe e e cXe cXcXe cXcXcXe e cXcXcXe L.MXmXw w w q w L.e cXq q 0 0 q q e e ",
"w e e e e e e e L.e L.w q w cXe e e e cXw cXe e e cXcXcXe cXe e L.e e e cXcXcXcXe cXcXcXe L.MXw w MXq L.L.e e e e q 0 q w e w e ",
"e w L.L.L.e e e L.e e L.q w cXcXe e e e e cXcXe cXe cXcXcXe cXe e e e cXcXcXcXcXcXcXcXcXe L.mXmXw mXmXw e e e e e q 0 w w e e e ",
"e L.e e e e e L.L.e e L.w q w cXcXe cXe e cXcXcXcXcXcXcXcXcXcXcXcXcXcXcXcXcXcXcXcXcXcXcXe L.L.mXw w L.e L.L.e e cXq 0 w e w cXcX",
"e L.L.e e cXcXe e L.e e w q w w cXe cXcXcXcXcXcXe e e cXcXcXcXcXcXe e e cXcXcXcXcXcXcXcXe L.L.mXmXmXL.L.L.e L.e cXq 0 w e e e cX"
};
