/* XPM */
static char *_600077680388[] = {
/* columns rows colors chars-per-pixel */
"64 64 256 2 ",
"   c black",
".  c #0000A8",
"X  c #00A800",
"o  c #00A8A8",
"O  c #A80000",
"+  c #A800A8",
"@  c #A85400",
"#  c gray66",
"$  c gray33",
"%  c #5454FC",
"&  c #54FC54",
"*  c #54FCFC",
"=  c #FC5454",
"-  c #FC54FC",
";  c #FCFC54",
":  c gray99",
">  c #ECECEC",
",  c gainsboro",
"<  c #D0D0D0",
"1  c #C0C0C0",
"2  c #B4B4B4",
"3  c gray66",
"4  c #989898",
"5  c gray55",
"6  c #7C7C7C",
"7  c gray44",
"8  c #646464",
"9  c gray33",
"0  c #484848",
"q  c gray22",
"w  c #2C2C2C",
"e  c #202020",
"r  c #FC0000",
"t  c #EC0000",
"y  c #E00000",
"u  c #D40000",
"i  c #C80000",
"p  c #BC0000",
"a  c #B00000",
"s  c #A40000",
"d  c #980000",
"f  c #880000",
"g  c #7C0000",
"h  c #700000",
"j  c #640000",
"k  c #580000",
"l  c #4C0000",
"z  c #400000",
"x  c #FCD8D8",
"c  c #FCB8B8",
"v  c #FC9C9C",
"b  c #FC7C7C",
"n  c #FC5C5C",
"m  c #FC4040",
"M  c #FC2020",
"N  c #FC0000",
"B  c #FCA85C",
"V  c #FC9840",
"C  c #FC8820",
"Z  c #FC7800",
"A  c #E46C00",
"S  c #CC6000",
"D  c #B45400",
"F  c #9C4C00",
"G  c #FCFCD8",
"H  c #FCFCB8",
"J  c #FCFC9C",
"K  c #FCFC7C",
"L  c #FCF85C",
"P  c #FCF440",
"I  c #FCF420",
"U  c #FCF400",
"Y  c #E4D800",
"T  c #CCC400",
"R  c #B4AC00",
"E  c #9C9C00",
"W  c #848400",
"Q  c #706C00",
"!  c #585400",
"~  c #404000",
"^  c #D0FC5C",
"/  c #C4FC40",
"(  c #B4FC20",
")  c #A0FC00",
"_  c #90E400",
"`  c #80CC00",
"'  c #74B400",
"]  c #609C00",
"[  c #D8FCD8",
"{  c #BCFCB8",
"}  c #9CFC9C",
"|  c #80FC7C",
" . c #60FC5C",
".. c #40FC40",
"X. c #20FC20",
"o. c #00FC00",
"O. c #00FC00",
"+. c #00EC00",
"@. c #00E000",
"#. c #00D400",
"$. c #04C800",
"%. c #04BC00",
"&. c #04B000",
"*. c #04A400",
"=. c #049800",
"-. c #048800",
";. c #047C00",
":. c #047000",
">. c #046400",
",. c #045800",
"<. c #044C00",
"1. c #044000",
"2. c #D8FCFC",
"3. c #B8FCFC",
"4. c #9CFCFC",
"5. c #7CFCF8",
"6. c #5CFCFC",
"7. c #40FCFC",
"8. c #20FCFC",
"9. c #00FCFC",
"0. c #00E4E4",
"q. c #00CCCC",
"w. c #00B4B4",
"e. c #009C9C",
"r. c #008484",
"t. c #007070",
"y. c #005858",
"u. c #004040",
"i. c #5CBCFC",
"p. c #40B0FC",
"a. c #20A8FC",
"s. c #009CFC",
"d. c #008CE4",
"f. c #007CCC",
"g. c #006CB4",
"h. c #005C9C",
"j. c #D8D8FC",
"k. c #B8BCFC",
"l. c #9C9CFC",
"z. c #7C80FC",
"x. c #5C60FC",
"c. c #4040FC",
"v. c #2024FC",
"b. c #0004FC",
"n. c #0000FC",
"m. c #0000EC",
"M. c #0000E0",
"N. c #0000D4",
"B. c #0000C8",
"V. c #0000BC",
"C. c #0000B0",
"Z. c #0000A4",
"A. c #000098",
"S. c #000088",
"D. c #00007C",
"F. c #000070",
"G. c #000064",
"H. c #000058",
"J. c #00004C",
"K. c #000040",
"L. c #282828",
"P. c #FCE034",
"I. c #FCD424",
"U. c #FCCC18",
"Y. c #FCC008",
"T. c #FCB400",
"R. c #B420FC",
"E. c #A800FC",
"W. c #9800E4",
"Q. c #8000CC",
"!. c #7400B4",
"~. c #60009C",
"^. c #500084",
"/. c #440070",
"(. c #340058",
"). c #280040",
"_. c #FCD8FC",
"`. c #FCB8FC",
"'. c #FC9CFC",
"]. c #FC7CFC",
"[. c #FC5CFC",
"{. c #FC40FC",
"}. c #FC20FC",
"|. c #FC00FC",
" X c #E000E4",
".X c #C800CC",
"XX c #B400B4",
"oX c #9C009C",
"OX c #840084",
"+X c #6C0070",
"@X c #580058",
"#X c #400040",
"$X c #FCE8DC",
"%X c #FCE0D0",
"&X c #FCD8C4",
"*X c #FCD4BC",
"=X c #FCCCB0",
"-X c #FCC4A4",
";X c #FCBC9C",
":X c #FCB890",
">X c #FCB080",
",X c #FCA470",
"<X c #FC9C60",
"1X c #F0945C",
"2X c #E88C58",
"3X c #DC8854",
"4X c #D08050",
"5X c #C87C4C",
"6X c #BC7848",
"7X c #B47044",
"8X c #A86840",
"9X c #A0643C",
"0X c #9C6038",
"qX c #905C34",
"wX c #885830",
"eX c #80502C",
"rX c #744C28",
"tX c #6C4824",
"yX c #5C4020",
"uX c #543C1C",
"iX c #483818",
"pX c #403018",
"aX c #382C14",
"sX c #28200C",
"dX c #600064",
"fX c #006464",
"gX c #006060",
"hX c #00001C",
"jX c #00002C",
"kX c #302410",
"lX c #480048",
"zX c #500050",
"xX c #000034",
"cX c gray11",
"vX c #4C4C4C",
"bX c gray36",
"nX c gray25",
"mX c gray19",
"MX c #343434",
"NX c #D8F4F4",
"BX c #B8E8E8",
"VX c #9CDCDC",
"CX c #74C8C8",
"ZX c #48C0C0",
"AX c #20B4B4",
"SX c #20B0B0",
"DX c #00A4A4",
"FX c #009898",
"GX c #008C8C",
"HX c #008484",
"JX c #007C7C",
"KX c #007878",
"LX c #007474",
"PX c #007070",
"IX c #006C6C",
"UX c #980088",
/* pixels */
"0 0 9 9 9 bXbX7 6 6 7 7 7 bX9 9 9 9 vX0 0 0 vX9 vX0 0 nXnX0 0 vXbX8 bX0 nXq 0 0 9 9 9 0 0 nXq q q 0 9 9 0 nX0 0 0 0 nXq w w MXq ",
"0 0 9 9 8 bX7 7 6 6 7 7 8 bX9 9 vX0 nX0 0 vX9 9 0 0 nXq nX0 vX9 8 8 bX0 nXq 0 0 9 bX9 0 nXq MXMX0 9 bXbX0 q nXnX0 nXq MXw w q q ",
"0 9 0 8 8 8 8 7 7 7 7 7 8 9 vX0 nXnX0 vX9 9 vXvX0 nXq nX0 vX0 bX8 8 9 0 q nX0 9 bXbX9 0 nXMXMXq bXbXbXbX9 0 q nXnXnXMXw w MXnX0 ",
"9 0 8 8 8 7 8 7 7 7 7 8 bX9 0 nXnXvXvX9 vXvXvX9 9 9 9 q vX0 bX8 bX9 0 nXq nX0 bX8 bX0 nXMXw MXq bX8 8 bX9 0 q q nXnXMXw MXq 0 0 ",
"9 8 8 8 8 bX9 9 8 8 8 bX9 vXnXnXnXvXbX7 7 bX9 9 9 vXnX0 0 9 8 8 vX0 0 q nX0 0 8 8 9 0 MXw w q 9 bXbX8 0 9 nXq nXnXq w w q nX0 0 ",
"bX8 8 8 bX9 9 vX8 8 8 bX9 0 nXq nX9 8 6 8 bX9 9 0 nXq 0 vXbX8 bX0 0 nXq nX0 9 8 bX0 nXMXw q 0 bX8 bX9 9 0 nXq nXq MXMXMXnX0 9 0 ",
"8 8 bX9 vXvX0 0 9 8 bX9 vXnXq q 0 9 8 8 bX9 vXnXq nX0 vX0 9 bXvX0 nXq vX0 9 8 bX0 nXq MXMX0 9 8 bX9 0 9 nXq q q q w MXq 0 0 9 9 ",
"8 bXvXnXnXnXnXnXvXbXbX9 vXMXMXq 0 bX8 8 9 nXq MXq nX0 0 vX9 vX0 nXq nXvX0 bXbX9 0 MXq q MX0 bX8 bX9 0 0 MXMXMXq nXnXq nX0 0 9 bX",
"9 9 nXnXMXq nXnXvX9 9 0 q MXq nX0 bX8 bXnXMXmXq nX0 vXvX9 vX0 nXq nX9 vX0 bX9 nXq MXq q nX0 bX8 9 0 9 q MXMXMXnXnXnXq 0 0 9 bX9 ",
"9 9 nXMXq nXnX0 9 9 9 nXq q nX0 bX8 9 0 MXw mXq 0 vX9 9 vX0 nXnXnXvX9 vX9 bX0 q MXw q nXnX9 8 8 9 0 nXw MXMXnXnX0 q nX9 bXbXbX9 ",
"9 vXnXq nXnX0 vX9 9 0 q nX0 0 9 8 8 9 0 mXw MXq 0 9 9 9 vX0 nXnX0 9 9 vX9 bX0 q q MXnX0 0 9 8 bX0 nXq w MXMXnX0 0 nX0 9 bXbXbX9 ",
"9 vX0 0 0 0 vX9 9 9 nXnX0 bX7 7 7 9 0 9 MXmXq 0 vX9 vX9 9 nXnX0 9 9 vXvX9 9 0 nXnX0 0 9 0 bXbX9 0 nXw MXnXq 0 0 0 9 9 0 bX9 9 9 ",
"0 9 vXvXvXbX8 8 bXbXbX9 9 bX8 8 9 0 0 9 q MXnXvX9 9 9 9 9 0 nXvX9 0 nX9 9 9 0 nX0 0 9 8 0 bXbX0 nXMXq q q nX0 0 9 9 9 9 9 0 0 0 ",
"9 bXbXbX8 8 bX9 9 0 0 0 9 bXbX9 9 0 0 nXMXq 0 9 9 vX9 9 vX0 vX9 0 nXnX9 9 0 9 9 0 9 bX8 0 bX9 nXq q nXq nX0 0 0 9 0 9 9 0 nXq 0 ",
"bX8 8 8 8 8 bX0 0 0 9 9 9 9 9 8 8 9 nXq mXMXvX9 vX9 vX0 0 vX9 vXnXq vX9 0 bX8 9 0 bX8 9 0 9 0 q q q q nXq 0 0 9 9 9 0 q q q nX0 ",
"bX8 8 8 8 bX9 9 9 bXbX9 vXvX9 8 9 0 q mXMXq 9 9 vX9 0 nXnX9 9 0 q nX9 0 bX8 8 9 9 bX8 9 0 0 q nXnXq nXnX0 0 0 9 9 0 q mXMXq 0 9 ",
"9 bXbX8 bX9 bXbX8 bX9 vXvXvX9 9 0 0 q mXq nX9 9 9 0 nXnX0 9 vXnXq nX0 0 bXbX8 0 9 8 8 0 0 nXq nXq 0 0 0 0 9 9 bX0 nXmXw MXnX0 9 ",
"9 9 vX9 9 bX8 8 bX9 vX0 vX9 9 0 nXnXMXMXnX0 vX9 vXnXq 0 9 9 0 q nX0 9 0 bXbXbXnXbX8 bX0 nXq nX0 0 0 0 9 bX8 bX9 0 q MXMXnX0 0 0 ",
"vXvXvX9 bX8 8 8 9 vX0 9 9 9 9 0 nXq q nX0 0 vX9 0 q 0 9 9 9 vXnX0 9 0 0 9 bX0 nX8 bX9 0 nX0 0 9 0 0 9 bX8 8 bX9 0 q 0 9 8 bX9 9 ",
"9 vX0 vXbX8 8 9 vX0 vX9 9 0 0 0 q nX0 0 9 0 vX0 nXnX9 0 9 bXbX9 9 9 0 nX9 9 nX9 8 9 0 nX0 9 0 0 nX0 bX8 bX9 0 9 0 nX9 8 bX0 9 0 ",
"9 vX0 9 bXbX9 vX0 vX9 9 0 nXq nXnX0 9 0 0 0 vX0 q 0 0 9 bX8 bX9 9 0 nXq 9 0 q 9 bX0 q nX9 9 0 nXq 0 bXbX9 0 0 9 0 0 9 bX9 0 0 9 ",
"vX0 vX9 9 vXvXvXvX9 9 vXq nX0 9 9 9 0 0 nXq q nXnX9 9 bX8 8 bX9 0 0 nXq q q nXbXbXq nX0 9 0 nXq nX0 bX9 0 0 0 9 9 0 9 9 0 9 0 0 ",
"nXnXvX9 9 vXvXvX9 9 9 0 q nX9 8 9 nXnXq q q q nX0 0 9 8 8 bX9 9 0 nXMXq nX0 9 bX0 nX0 9 9 nXq nX0 9 9 0 0 0 9 9 9 9 0 0 0 0 nXq ",
"q nX0 9 9 vX9 bX9 9 9 nXnX0 9 8 0 nXq MXMXMXnX0 0 9 bX8 bX9 0 0 q nXMXq 0 0 bX9 nXnX9 9 0 nXq nX0 9 0 0 0 9 9 0 9 9 9 0 nXq q q ",
"q 0 0 vX9 bX8 bXvX9 9 0 vX9 8 9 0 q MXmXmXq nX0 9 9 bX8 9 0 nXnXnXq nXnX0 9 bX0 q 0 9 0 nXq nXq nX0 0 0 0 bXbX9 0 0 nXnXq q q w ",
"0 9 8 8 8 8 bX9 0 vX9 vX9 9 9 9 0 q MXw MXq 0 9 0 bX8 9 0 nXMXMXMXq q 0 0 9 9 nXnX0 9 0 nXq q nX0 0 0 9 bXbXbX9 0 nXq mXw mXq q ",
"9 7 7 8 bX9 vX0 0 nX9 9 9 9 9 0 nXMXmXmXq nX0 0 9 8 bX0 nXMXw w MXq q 0 9 9 0 nX0 9 0 nXq q nX0 vX9 9 8 8 bX9 0 0 q q mXw mXnX0 ",
"7 7 8 bXvX0 0 q nX0 9 9 9 9 0 nXq mXw MXq 0 9 bXbXbX9 0 nXMXw MXq nX0 9 bX8 0 0 0 9 nXq q nXq 0 9 bX8 8 bX8 9 0 nXq MXmXmXMX0 bX",
"8 7 8 9 9 0 q q nX0 9 9 vX0 nXq mXmXMXMXq 0 bXbX8 bX9 0 nXMXMXnX0 0 9 bX8 bX9 0 9 0 nXnXnXnX0 vXbX8 8 8 8 bX0 nXq MXmXw mXq 9 7 ",
"9 8 7 bX9 0 nXnX0 9 9 9 vX0 q nXmXMXq q nX9 bX8 8 bX9 0 nXq q 0 0 vX9 8 8 9 9 9 nXq nXnXnX0 0 9 8 8 8 bXbX0 nXq q mXw mXMXnX9 8 ",
"9 bXbXbX9 nXnX0 9 9 9 vX0 nXq 0 q q nXnX0 9 8 8 bX9 0 nXq q nX0 0 9 bX8 8 9 0 nXq nX0 nX0 vXvXbXbXbX9 bX9 0 q MXw mXmXMXq nX9 8 ",
"0 9 bX9 vXnX0 9 9 9 9 vX0 q nX0 q nXnX0 vXbX8 bX9 0 0 nXq nX0 0 vX9 8 8 bX9 nXq nX0 vX0 vX9 9 bXbX9 vX9 9 nXMXw mXmXq q nX9 8 9 ",
"0 9 9 vX0 0 vX9 vXvX9 vX0 q 0 nXq nX0 vX9 8 9 9 0 0 0 q q 0 0 vX9 bX8 8 9 vXq q 0 vX9 vXvX9 bX9 9 vXvX9 9 q mXmXMXq nX0 0 9 9 0 ",
"9 9 vX0 vX9 9 9 vX0 9 0 nXq nXq q nXvX9 bX9 vX0 0 nXq nX0 vXvX9 9 8 bX9 vX0 q nX9 vXvXvX9 9 9 9 vX0 9 9 vXq MXmXmXnX0 vX0 9 0 0 ",
"9 0 vX9 9 9 9 vX0 nXnXq q mXMXMXq nXvX9 9 vX0 nXq q nXvXvX9 9 9 bX9 9 vX0 q nX9 9 vXvX9 9 9 9 vX0 vX9 vX0 q MXq nXq 0 9 vX0 0 9 ",
"0 vX8 8 9 9 vXnXnXq q q nXw mXMXq nXvXvXvX0 nXq nXq 0 vX9 bXbX9 vXvXvX0 nXnX9 9 vX0 vX9 vXvX0 q 0 vX9 0 nXq q q q 0 vX9 0 0 0 0 ",
"0 9 8 8 9 vXq q MXnXvXvX0 w mXMXnX0 9 9 vXnXq 0 q 0 vX9 bXbXbXvX0 9 0 0 9 9 vX0 vXvX9 vXnXnX0 0 9 vXvX0 q q nXq 0 vX9 vX0 0 9 0 ",
"9 9 9 9 0 q mXMXnXvXbX8 0 w mXq 0 vX9 9 0 q nX0 9 vX9 bX8 8 9 0 9 bX0 9 8 0 9 9 vXvX0 0 nX0 nXvX9 9 0 nXnXnXq 0 9 9 9 0 0 0 0 vX",
"9 9 vX0 q mXmXq 0 bX8 bXq mXMXnXvX9 9 0 nXq 0 9 vXvX9 8 bX9 0 9 bX8 bX9 9 9 bXbX9 vX0 nXq nX9 vX9 vXnXq nXq 0 9 bX9 vX0 0 vXvX9 ",
"0 nXq q mXw MX0 8 8 bXvXMXMXq nX9 vX0 nXq q 0 vX9 bX8 bXbX0 0 9 8 8 bX9 bX8 bXbX9 0 nXq nX0 0 vXvX0 q nXq 9 9 bXbXvXvX0 vXvX9 9 ",
"0 q q MXmXMXnX9 8 8 9 0 MXq nX0 vX9 nXq q 0 vXvX0 nXnX9 0 q nX9 8 8 vX9 bX8 bX9 0 nXq nX0 nX0 0 0 nXq 0 bX8 8 7 bX9 vXvX9 9 9 0 ",
"nXq nXMXMXnX0 bX8 9 0 q MXnX0 9 9 0 q q nX0 vX0 nXq 0 0 nXnX0 bX8 bX0 vX9 bX9 0 nXq q 0 nX0 0 0 0 nX0 9 8 7 7 8 9 9 9 9 9 9 9 0 ",
"q nX0 q q q 9 bXbX0 nXMXq 0 vXvXvXq q nX0 vXnXnXq nXnXq q nX9 bXbXvX0 vX9 9 0 nXq MXq nX0 0 0 nX0 0 9 8 7 7 8 bX9 9 vX9 9 vX9 0 ",
"q 0 0 nXq nX9 vX0 nXq q nXvX9 vX0 q nX0 9 vX0 0 nX0 MXMXnX0 9 bXvX0 0 vX9 vXnXq mXMXnX0 0 9 nXnX0 0 bX7 7 8 bX9 vX0 vX9 vXvX9 0 ",
"nX0 0 nXq q vX0 q q q nXnXvXvXvXnXnX0 vX9 9 vXnXq mXmXMX0 9 bXvX0 nX0 vXvX0 q MXmXq 0 0 9 0 nX0 0 bX8 7 8 bX9 nXnXvX9 vXvX9 9 0 ",
"0 0 nXq q nX0 q q q q nXnXvX0 0 nX0 vX9 9 9 vXnXmXmXmXnX0 bX9 0 nXq nX0 0 q MXmXMX0 0 vX0 nXnX0 9 bX8 bX9 9 9 0 vX9 bX0 vX9 9 0 ",
"nXq q q q 0 q q nXnXq q 0 0 0 0 0 0 nXq vXvX0 MXmXmXq 0 9 9 0 nXq mXmXMXq MXmXMXq 0 vX9 vXq nX0 9 9 9 0 0 nX0 vX9 bXbX0 vX9 9 0 ",
"q q nX0 0 q q nXnXq q nX0 0 0 0 9 9 nXq 0 0 nXMXMXq 0 9 9 9 nXq mXw w w w mXMXq nXvX9 9 nXq 0 vXvX9 vXnX0 0 vX9 8 8 9 0 vX9 0 nX",
"q nX0 9 0 q nX0 nXq nX0 0 9 9 9 0 nX0 0 nX0 q q nX0 9 9 vXnXq mXw w w w mXq nXnX0 vX9 vXnXnXvX9 vX0 0 nXnXvX9 bX8 9 0 vX9 9 0 nX",
"q 0 0 0 nXq q nXq nXnX0 9 9 9 8 0 nXq nX0 nXnX0 0 9 9 vX0 q MXMXMXmXw w mXq vX0 vX9 vXnXq 0 0 vX0 0 0 q 0 9 bXbX9 vX0 9 9 0 nXq ",
"q 9 0 q q q nX0 0 0 0 9 0 0 9 bXnXnX9 0 nXnX0 0 9 9 vX0 nXq q q MXmXw mXq nXvX9 bX8 vXnXnX9 vX0 0 0 nXnX0 9 9 vX0 0 9 bX9 0 nXq ",
"9 0 nXq q nX0 0 vX9 9 9 9 0 9 nXnX0 9 0 0 0 9 bXbX9 0 0 q q nXq mXmXmXq q 0 9 8 8 bXvX0 0 vX0 0 nXq q 0 vXvXnX0 0 0 9 bX9 0 nX0 ",
"9 0 q nX0 0 0 vX9 9 9 9 0 nX9 nX9 8 9 0 0 9 bXbX9 vXnXnXq nXq mXw mXMXq nX9 8 8 bXvXvXvX9 vX0 nXq q q 9 9 0 nX0 0 9 bXbX9 0 0 9 ",
"9 nXnX0 0 0 0 vX9 9 9 0 nXnXnX9 9 9 9 9 bX8 bX9 9 0 nX0 9 0 mXw w MXq 0 9 bX8 8 9 0 vX9 vX0 0 q MXq 0 9 9 0 nX0 9 bX8 9 0 nX0 9 ",
"9 q nXnX0 0 vX9 9 9 9 0 q nX0 9 bXbX8 8 8 bX9 vX0 nXnX9 0 q mXw mXq 0 vX9 bX8 9 0 vX9 9 0 0 nXq mXq 0 9 vX0 nX0 9 8 9 bXnXnX0 9 ",
"q nXq 0 0 0 vX9 9 9 nXq nX0 9 8 7 8 7 7 8 9 9 0 nXnXnX0 q mXw mXMX0 vX9 vXbXbXvX9 9 8 vX0 0 nXq w MX0 vX0 nX0 9 bX8 7 9 bX9 9 0 ",
"nXq nX0 0 vX9 vX9 0 nXq nX9 8 7 7 7 7 8 bX9 vXnXnXq nXq MXmXMXMXq 0 9 9 bX8 vX0 9 9 8 0 0 nXq mXw MXq q nXnX0 9 8 7 7 8 9 0 9 0 ",
"q q nX0 vX9 vX9 0 nXnXnX0 9 7 7 7 7 8 8 9 vX0 nXnXq q q nXnXq q q 0 vX9 vXvX9 bX8 vX9 0 nXq MXmXw mXMXq 0 0 9 bX7 7 8 bX9 0 0 0 ",
"q q 0 vX9 9 9 0 nXq q 0 9 8 7 7 8 8 8 bX9 0 0 nXnXnXnX0 vXnXq q nXvX9 9 vX0 bX8 bXvXvX0 q q mXw w mXq nX0 0 9 8 8 bX8 9 0 nXnX0 ",
"nXq 0 vX9 9 0 nXq nX0 9 bXbX7 8 8 bX9 9 vX0 0 nXnX0 vX9 9 nXq q 0 vXvXvXvX9 8 8 9 vX0 nXq MXmXw w mXq nX0 9 bX8 bX8 0 0 nXq nX0 ",
"nXq 0 9 vX9 0 nXnX0 vX9 bX8 8 8 8 9 9 vX0 0 nXnX0 9 9 9 vXnXq nXvX9 vX0 9 bX8 bX9 vX0 q q mXw w w MXq 0 9 9 8 8 8 0 0 nXq q nX0 ",
"q nXvX9 vX9 nXq 0 vX9 9 bX8 bXbX9 vX9 9 0 nXq nXvX9 9 9 0 nXq nXvXvX0 9 bX8 bX9 vX0 0 q MXmXw w w q nX0 9 bXbX8 9 0 nXq q q 0 0 ",
"nX0 vX9 vXnXnXnX0 9 9 vX9 bX9 9 vXvX9 0 nX0 q 0 9 9 9 vX0 nXnX0 0 0 9 bX8 bX9 vX0 0 0 q mXw w w w q nX0 9 bXbX9 0 nXq q q nX0 0 ",
"0 vX9 vX0 nX0 0 vX9 vXvX9 9 vX0 vX9 9 nX0 nXq vX9 9 vXq 0 0 nX0 0 0 9 bXbX9 9 vX0 q q MXmXw w w w q 0 0 9 bX0 0 0 nXq q q nX0 0 "
};
