/* XPM */
static char *_603191846445[] = {
/* columns rows colors chars-per-pixel */
"64 64 218 2 ",
"   c #593514",
".  c #5D3A15",
"X  c #613C15",
"o  c #6A4816",
"O  c #714D18",
"+  c #6E511F",
"@  c #755315",
"#  c #7B5717",
"$  c #7E5919",
"%  c #7A5819",
"&  c #7C5E23",
"*  c #865B1C",
"=  c #975E15",
"-  c #866219",
";  c #886419",
":  c #8C691D",
">  c #946D1A",
",  c #9D6617",
"<  c #95701A",
"1  c #9A741B",
"2  c #A46E16",
"3  c #A66D1E",
"4  c #A47217",
"5  c #AE7517",
"6  c #AB7917",
"7  c #A5731A",
"8  c #AE761A",
"9  c #AD7B19",
"0  c #B37B19",
"q  c #8F5E25",
"w  c #836120",
"e  c #896A23",
"r  c #8F6027",
"t  c #986A2B",
"y  c #937329",
"u  c #967427",
"i  c #987231",
"p  c #AB7E2E",
"a  c #A57A26",
"s  c #AC7D2B",
"d  c #AE821C",
"f  c #B5841A",
"g  c #B8861B",
"h  c #B7881D",
"j  c #BC8B1C",
"k  c #B9921F",
"l  c #AE8422",
"z  c #A3822D",
"x  c #B38622",
"c  c #B3852B",
"v  c #BA8C2B",
"b  c #B78B26",
"n  c #BF962B",
"m  c #BD9426",
"M  c #AE8C35",
"N  c #B28D32",
"B  c #B38A3C",
"V  c #BB8D30",
"C  c #BA9534",
"Z  c #B59235",
"A  c #C18E1D",
"S  c #C5951D",
"D  c #C8971E",
"F  c #C7981E",
"G  c #C99A1F",
"H  c #CDA01F",
"J  c #C39424",
"K  c #C69A24",
"L  c #CB9D22",
"P  c #C2932A",
"I  c #C5992A",
"U  c #CB9E2B",
"Y  c #C29B33",
"T  c #C89E31",
"R  c #C19736",
"E  c #CEA125",
"W  c #CDA22C",
"Q  c #D3A522",
"!  c #D6A923",
"~  c #DAAD23",
"^  c #D1A62C",
"/  c #D5AB2B",
"(  c #D9AE2A",
")  c #DDB125",
"_  c #DCB22C",
"`  c #CDA433",
"'  c #C7A33A",
"]  c #C9A63C",
"[  c #CCA93D",
"{  c #CCA637",
"}  c #D1A632",
"|  c #D3AB34",
" . c #D3AC3B",
".. c #D7B032",
"X. c #DBB333",
"o. c #D6B13D",
"O. c #D9B33C",
"+. c #DFBC39",
"@. c #E2B525",
"#. c #E6BA26",
"$. c #E9BD27",
"%. c #E1B62A",
"&. c #E5BA2C",
"*. c #E9BE29",
"=. c #E0B430",
"-. c #E4BC33",
";. c #E2BC3B",
":. c #E6BD36",
">. c #EBC12C",
",. c #EBC333",
"<. c #E6C13D",
"1. c #ECC53B",
"2. c #EEC93D",
"3. c #EAC634",
"4. c #F2CB3B",
"5. c #F1C73A",
"6. c #F6D23E",
"7. c #F5D42C",
"8. c #C29940",
"9. c #CEAB42",
"0. c #CBA946",
"q. c #D4AE42",
"w. c #D5AF46",
"e. c #D6B244",
"r. c #DAB543",
"t. c #DDB946",
"y. c #D6B34A",
"u. c #D9B64B",
"i. c #D7B94C",
"p. c #DDBA4A",
"a. c #D9BA53",
"s. c #E3BD45",
"d. c #E1BD4B",
"f. c #E0B641",
"g. c #DEC049",
"h. c #DEC151",
"j. c #E5C244",
"k. c #EAC544",
"l. c #E5C946",
"z. c #EEC944",
"x. c #E5C34A",
"c. c #EAC74A",
"v. c #EECA4A",
"b. c #F1CC45",
"n. c #F1CD4C",
"m. c #EBD249",
"M. c #F6D444",
"N. c #F6D44A",
"B. c #FADD4D",
"V. c #E9CE53",
"C. c #E4CA5E",
"Z. c #E6C55A",
"A. c #F1CF51",
"S. c #F3D253",
"D. c #F5D55B",
"F. c #F7D95C",
"G. c #F8DA5C",
"H. c #F8DB53",
"J. c #F9E159",
"K. c #E6CD65",
"L. c #ECCC64",
"P. c #E6CA67",
"I. c #EAD26C",
"U. c #F5D564",
"Y. c #F9DD64",
"T. c #F7DA6D",
"R. c #F9DF69",
"E. c #F1D86A",
"W. c #EDD97E",
"Q. c #F3D974",
"!. c #F3DC7B",
"~. c #F8DE7A",
"^. c #F6DA74",
"/. c #FAE26D",
"(. c #FBE86A",
"). c #FAE473",
"_. c #FBE975",
"`. c #F9E27B",
"'. c #FBEC7B",
"]. c #F5E27B",
"[. c #EEDA80",
"{. c #ECD283",
"}. c #F8DE85",
"|. c #F1DE8E",
" X c #F4DB84",
".X c #F1DE94",
"XX c #E5CE80",
"oX c #F9E582",
"OX c #FBEC85",
"+X c #FBEC8C",
"@X c #F7E58A",
"#X c #FDF288",
"$X c #FAEB92",
"%X c #FBED9C",
"&X c #F8E598",
"*X c #FDF19D",
"=X c #FDF192",
"-X c #FAEAA4",
";X c #FBECAB",
":X c #F8E7A2",
">X c #FDF2A3",
",X c #FDF4AA",
"<X c #FBEDB3",
"1X c #FDF3B4",
"2X c #FEF5BB",
"3X c #FEF8B3",
"4X c #FDF5C3",
"5X c #FDF5CC",
"6X c #FEF9CD",
"7X c #FEF8C5",
"8X c #FEF9D3",
"9X c #FEFBDC",
"0X c #FDF6DA",
"qX c #FEFAE4",
"wX c #FEFCEC",
"eX c #FEFDF3",
"rX c #FEFEFD",
"tX c None",
/* pixels */
"tXtXtXtXtXtXtXtXtXtXtXtXtXtXtXtXtXtXtXtXtXtXtXtXD G H ! ~ ~ ~ ~ %.%.5.6.tXtXtXtXtXtXtXtXtXtXtXtXtXtXtXtXtXtXtXtXtXtXtXtXtXtXtXtX",
"tXtXtXtXtXtXtXtXtXtXtXtXtXtXtXtXtXtXtXtXA S S ~ ~ ) ) ~ ~ ~ ~ ~ Q Q Q :.k.z.M.M.M.M.tXtXtXtXtXtXtXtXtXtXtXtXtXtXtXtXtXtXtXtXtXtX",
"tXtXtXtXtXtXtXtXtXtXtXtXtXtXtXtXtXtX0 A #.@.@.@.@.) ) ~ ~ ! ! ! Q Q Q Q Q Q D.U.U.G.J.J.J.B.tXtXtXtXtXtXtXtXtXtXtXtXtXtXtXtXtXtX",
"tXtXtXtXtXtXtXtXtXtXtXtXtXtXtXtX0 0 #.#.@.@.@.) ~ ~ ~ ~ ! ~ ! ! Q Q Q Q H H H G Q ~.}._._.(.(.H.tXtXtXtXtXtXtXtXtXtXtXtXtXtXtXtX",
"tXtXtXtXtXtXtXtXtXtXtXtXtXtX5 5 #.#.@.@.@.@.@.@.@.~ ~ ~ ! ! ! Q Q Q Q H H H L L L G L.&X_._._._.(.tXtXtXtXtXtXtXtXtXtXtXtXtXtXtX",
"tXtXtXtXtXtXtXtXtXtXtXtXtX5 *.#.@.#.#.@.@.@.) ~ ) ~ ) ~ ~ ! ! Q Q Q Q Q H H D D S G L S -X-X'.'.'._.(.tXtXtXtXtXtXtXtXtXtXtXtXtX",
"tXtXtXtXtXtXtXtXtXtXtXtX5 *.#.#.#.@.#.@.@.) @.~ @.) ) ) ~ ~ ~ ! Q Q Q H H G L D D G D D D }.-XOXOX#XOX'.tXtXtXtXtXtXtXtXtXtXtXtX",
"tXtXtXtXtXtXtXtXtXtX5 0 >.$.$.#.#.#.@.@.@.@.#.@.@.~ -X-X>X>X,X,X~ Q Q Q H H D D G D S S S J D %X>X,X,X3X,XtXtXtXtXtXtXtXtXtXtXtX",
"tXtXtXtXtXtXtXtXtXg ! $.$.$.$.#.#.#.@.#.@.@.4X4X1X1X;XJ g g f g %X>X,X,XQ H G G D G S D S G S S ;X2X7X5X8X2XtXtXtXtXtXtXtXtXtXtX",
"tXtXtXtXtXtXtXtXA ) >.$.$.$.#.#.#.#.#.@.8X5X2XD ! Q ! Q Q Q Q H H A g 4 -X-X^ G G S S L D S D S K -X8X9X9XqX4XtXtXtXtXtXtXtXtXtX",
"tXtXtXtXtXtXtXtXS >.>.$.$.#.#.#.$.#.5X6XD Q Q Q ! Q ! Q Q ~ ! Q ! Q G G g 5 2 j D S S D S D S S D S -XwXwXeXwX4XtXtXtXtXtXtXtXtX",
"tXtXtXtXtXtXtX! >.*.$.$.#.#.#.#.Z.8XW.H Q Q Q ~ ! ! Q ! Q 4.Q Q Q Q Q H Q D g 5 S S L D D S S S S S ` -XrXrXrXeX4XtXtXtXtXtXtXtX",
"tXtXtXtXtXtX( >.,.*.$.$.#.#.#.5X6XH Q Q Q Q ~ Q Q Q ~ Q ! ,.P.Q Q H H H L Q H D f 2 G G S S S S S S S :X:XrXrXrXqX1XtXtXtXtXtXtX",
"tXtXtXtXtX>.,.,.,.*.$.$.#.#.eXqXH ~ ~ ~ ~ ~ ~ ~ ! ~ ~ Q A 5.5XH H H H H L L L H G g 4 G S S S S S S S S :XrXrXrXeX0XtXtXtXtXtXtX",
"tXtXtXtXtX5.5.,.,.>.*.$.#.eXeX! ~ ~ ~ ~ ~ ~ ~ Q ~ ~ ~ Q H 1.$X} G H G H H Q H H L G A 4 ! S S S S S S S D &XrXeXeXqX2XtXtXtXtXtX",
"tXtXtXtXM.5.,.,.,.,.:.&.,X8X! ~ ~ @.~ @.~ ~ ~ ~ ~ ~ Q 5 ! ,.).wXD D H H H L H L G G G j 4 ~ S S S S S S D Q.5XqXqXqX8X%XtXtXtXtX",
"tXtXtXtX5.,.5.,.,.>.,.z.#XQ ~ ) ~ ) @.~ ~ ~ ~ ~ Q ~ Q A ~ $.G.4XD D L H H H H H H G G G j 4 ~ S S S S S k S Z.0X9X9X9X4XtXtXtXtX",
"tXtXtXF.2.1.3.,.,.,.&.Y.G ! ) @.@.@.) ~ @.~ ~ ~ ~ ~ 2 H ~ *.H.%XeXD L H L L H D G G G G S f j F S S S S S S Z.&X9X9X9X8X:XtXtXtX",
"tXtXtXD.2.2.5.,.>.,.E E ( ) %.@.@.) @.@.~ ) ) ~ Q ~ g Q ~ >.N.`.5XJ G H L L H L L G G G G S 9 @.S S S S S S S Z.6X6X6X6X1XtXtXtX",
"tXtX).2.2.5.,.,.,.,.m g ) _ %.%.@.@.) ) ) ) ~ ~ ~ 2 A Q ~ >.b./.1XeXD D D D D S G G G G G G j 4 @.S S j S S S x.<X;X<X;X-X XtXtX",
"tXtX`.2.1.1.,.1.:.8 7 ( %.&.&.%.%.@.@.) ) ~ ~ ~ ! f D Q ) ,.6./.&XqXL S S S L L G G G G G G G f #.S S S S S k S e.@X}.}.!.Q.tXtX",
"tXtXb.2.2.1.5.,.5.3 a &.&.-.&.&.&.%.@.) ) ~ ! ! 4 j G ! ) >.2.H.oX4XrXS L S S S G G D G G G G j 4 ) S S S k S S Y L.L.L.L.C.tXtX",
"tX+Xz.2.1.2.2.,.0 a _ -.,.-.,.&.&.@.@.( ) ~ ~ Q j G H ! ) >.4.N.R.%XwXH S S S S S S S D F G G D f ~ S S S S S S N p.p.a.a.p.u.tX",
"tX+Xz.2.5.1.1.2.x a =.-.-.,.&.%.%.%.@.$.$.@.~ G G H Q ! ) >.4.M.F.).1X1X#XB.! S S S S S S D G G j 6 S S S S S S b z 9.9.9.9.9.tX",
"tX+Xz.z.z.5.1.1.K s :.>.:.,.*.>.:.#.#.&.%.) ! E Q Q Q ! ) #.>.4.M.Y.).OX'.'.'.'.#X#X'.&.G S S L S 6 ~ S S k S S S 1 C ] ] ' ' tX",
"tXb.z.2.1.1.1.U s %.,.:.J K W / / ( ) ( ) ! ( Q Q Q ! ! ~ >.>.3.5.N.Y.Y./.R./._.)._._._.'._./.S G g ! S S S S S D : 0.0.0.' ' tX",
"$Xb.z.z.1.z.z.0 p %.,.,.1.v K K E W ^ ! ( ( ! / Q +.Q ! ) ) >.oX5.5.M.n.S.H.F.F.F.F.F.S.n.,.Q S G A ! S S S S S S - i.y.i.0.9.9.",
"=Xb.z.2.z.z.z.A c =.1.,.,.c W I E E E ^ Q / ! Q ^ ~ *X( ) ) ) 7.1X,.5.5.5.5.b.b.b.b.,.:.~ A j D G S f S S S S S S - i.0.0.w.9.[ ",
"*Xb.v.z.2.z.z.P v :.:.1.1.,.q / v K E / E ! / / ! E '.! ~ ) ! >.*X>.>.>.*.:.:.*.,._ ~ Q j f S G G G f S S S S S F # e Y C Y Y n ",
"%Xb.v.z.z.z.z.U V 1.1.1.1.1.,.a | m K W E ^ E E W E /.! ! ( G >.@X#._ ) @.) @.) ! H ..j g S G G G G g Q S S S k k # o n Y n n n ",
"-Xb.b.v.z.z.1.^ } ;.k.1.1.1.,.,.c O.E J E E E E E U /.^ ! ( K @.$X) ) ) ~ ~ Q Q H _ j f S S G G G G j ~ S S S S F d O x x d l l ",
"*XS.n.b.v.z.k.X.=.1.1.1.<.1.1.:.,.c r.W J W W E E K /.E ^ / K ) %X_ ) ) ~ ! Q L _ j f S S F G G G G j Q S S S S F h O 1 1 1 < < ",
"-Xn.b.v.z.v.k.;.X.<.k.1.1.1.<.<.:.t P X.P K W L L J (.^ E / E / '._ _ ) ) Q H O.j , A D D G G G G G j ! S S S S S f . > > > > > ",
"*XA.n.n.v.v.k.k.| l.1.1.1.<.<.<.:.;.r | I K K U L * K E E E / 3 ) ) %.) _ ( +.j = g D S G G G G G G j ~ S S S S S 1   1 1 1 1 1 ",
">Xn.b.c.v.z.z.c.[ k.k.k.l.j.<.<.;.;.=.t P J K K U L E U E ^ Q / / ( _ +.;.) K , g S S D G D G G G G S ~ S S S S S o   > < < > 1 ",
"%XS.n.b.v.v.v.V.[ <.k.k.j.<.<.l.;.;.;.c c P U K K U L L E Q ^ ! / ( _ 3.<.-./ x m D D K G G G G G G j G S S S S S . o 1 1 1 1 1 ",
"*Xn.n.n.v.v.k.D. .f.l.k.k.<.j.<.k.;.;.O.c I U K L L E L E E ^ ^ / ( _ <.v.F.z.x K L L L G G G G H G j G S S S S D . < > < < < < ",
"*XS.S.v.v.k.k.^. .r.k.k.k.j.<.<.;.;.;.p c I U U U U Q ^ / E E E / ) _ <.S.^.Y.b K K K L E E G L G F ) S S S S S S . ; ; ; ; ; ; ",
"tXn.n.v.v.v.k.`.e.r.x.k.j.<.<.s.j.;.;.t v I U U E ^ / ( ( ( / ^ E / ) <.S.^.Q.I.K U E K E E L L G S @.D D D S S S   - ; - - ; tX",
"tX>XA.v.v.z.k.k.oXe.j.k.j.j.j.j.s.s.s.p C U U } ( _ _ _ ( ( ) ( W / ( =.n.^.`.,XI W E U W E E U H S #.K S S S D S   # $ $ $ $ tX",
"tX>XV.v.v.k.k.k.@Xe.r.j.j.j.j.j.<.s.s.C U W } _ &._ +._ +._ X._ ) / ^ ( <.Y.~.OXI L U E W E W E L L K L L S S S     @ @ @ @ @ tX",
"tX>Xv.v.z.k.k.k.&Xr.r.j.j.s.j.s.x.f.t.` W / +.,.-.=._ _ ......_ X._ / / _ A.`.D.I U W W W ^ W W U :.K K J L J S   @ @ @ @ @ @ tX",
"tXtXv.v.k.k.s.j.j.&XO.r.x.d.d.d.d.d.s.T / 3.>.,.:._ } T Y P  . ....._ .._ <.^.T.I W W ^ W W W U U -.L U K K L K   @ # # # # tXtX",
"tXtX>Xv.x.k.d.s.s.;Xr.r.s.x.x.s.d.d.d.` +.3.3.3...T R N ' Y r R  ..._ ..| _ S.^.I E W W W ^ W W :.U U U U U U 1 . $ $ $ $ $ tXtX",
"tXtX,Xv.k.s.x.s.s.s.1Xt.u.d.d.d.d.d.g.o.3.6.3...` ] Y  .o.o.O.O.y ` | ......;.~.Y U W W ^ ^ W U ,.U U U U U U o ; - - - - ; tXtX",
"tXtXtX>Xc.x.s.x.x.s.5XZ.r.d.d.d.x.h.B j.N.m...` i r.r.o.O.r.r.O.o. .p | ..X...D.!.W ^ } W } W ,.W W W U T U U + $ $ $ * $ tXtXtX",
"tXtXtX,Xc.x.k.d.x.s.f.0Xx.q.d.d.d.d.B S.S.e.B r.t.r.r.O.O.r.r.O.O.O.o.o.c | ..O.T.` ^ ^ } ^ ,.W T U W W W ` + + w w w & * tXtXtX",
"tXtXtXtX-Xx.z.x.k.d.d.{.qXj.w.d.d.d.8.S.[ p.p.p.t.t.t.t.r.t.t.r.O.O.o.o.o.o.W ..T.} } } | ^ ,.` W } T W W ` + : e e e e tXtXtXtX",
"tXtXtXtX3Xc.x.x.x.j.s.s.qXwXj.w.d.d.B d.d.d.d.d.p.u.t.t.t.p.t.r.f.q.q.o.o.X.| | V | | } } ,.} T } W U } W & & < y y y y tXtXtXtX",
"tXtXtXtXtX,Xx.c.x.t.t.t.t.qX0Xl.q.d.d.d.d.d.d.d.d.d.p.p.t.t.r.t.r.f.O.o.o. . .| | } | } 5.} ^ } T } ` W ` e z z z z z tXtXtXtXtX",
"tXtXtXtXtX,Xc.x.x.t.t.t.d.f.0X5Xl. .d.d.d.d.d.d.d.d.f.d.p.t.t.r.q.f.o.o.o.o.X.| | | } 5.} } } T ` ` } ` y M Z M M M M tXtXtXtXtX",
"tXtXtXtXtXtX,Xx.x.p.x.t.r.t.r.4X4Xl.q.x.d.d.d.d.d.d.d.d.p.s.r.t.r.f.f.f.q. . .X.| | 5.| } ` ` ` } { } i z C C C Z Z tXtXtXtXtXtX",
"tXtXtXtXtXtXtX,Xx.p.p.t.t.t.r.r.@X1XE.l.p.p.x.p.d.p.d.p.d.t.p.r.r.O.r.O.O.o. . .4.5.| } | { { { { } M M C C Z Z Z tXtXtXtXtXtXtX",
"tXtXtXtXtXtXtXtX1Xx.x.p.p.t.r.t.r.d.>X=Xm.l.p.p.d.p.d.p.d.p.t.r.r.r.f.q.q.q.6.4.|  .} | | { | |  .{ 0.] ] 0.[ [ ' tXtXtXtXtXtXtX",
"tXtXtXtXtXtXtXtX3X,Xd.p.p.t.t.r.r.r.p.f.+XOX).v. .u.f.p.t.t.t.t.f.r.r.q.M.M.O.{  .|  . .{ |  .{  .a.q.e.e.[ e.o.tXtXtXtXtXtXtXtX",
"tXtXtXtXtXtXtXtXtX,X,Xh.p.p.p.f.r.r.r.r.r.r.)./.T.Y.Y.v.V.V.V.S.N.N.N.N.q.q.q. . . .}  .|  . .9.P.q.w.w.e.e.9.tXtXtXtXtXtXtXtXtX",
"tXtXtXtXtXtXtXtXtXtX3X>Xp.p.p.p.t.r.u.y.r.r.r.e.r.r.F.F.H.N.N.N.r.r.q.q.q.q. .q. .[  . .[  .p.I.i.i.i.i.y.y.tXtXtXtXtXtXtXtXtXtX",
"tXtXtXtXtXtXtXtXtXtXtXtX,Xp.p.p.p.f.r.u.r.y.r.y.e.r.q.r.y.r.y.q.e.o.r.q.r.q.q.q.e.[ q.e.q.I.Q.h.x.h.h.h.h.tXtXtXtXtXtXtXtXtXtXtX",
"tXtXtXtXtXtXtXtXtXtXtXtXtX,XZ.i.t.u.u.u.y.r.u.y.y.r.r.y.y.y.y.r.e.e.q.q.q.q.q.q.o.e.e.9.Q.!.C.C.K.C.C.tXtXtXtXtXtXtXtXtXtXtXtXtX",
"tXtXtXtXtXtXtXtXtXtXtXtXtXtX,X>Xu.d.u.u.r.u.u.u.u.e.y.y.r.y.y.y.e.e.e.w.r.q.q.q.e.9.].!.K.K.K.K.K.P.tXtXtXtXtXtXtXtXtXtXtXtXtXtX",
"tXtXtXtXtXtXtXtXtXtXtXtXtXtXtXtX,X,Xp.p.p.y.u.u.u.i.y.y.y.y.y.y.y.e.y.y.q.w.w.w.oXOXoXI.I.I.I.I.tXtXtXtXtXtXtXtXtXtXtXtXtXtXtXtX",
"tXtXtXtXtXtXtXtXtXtXtXtXtXtXtXtXtXtX>X,XI.p.p.p.u.u.u.u.i.y.y.e.e.e.e.9.w.w.OX+X$X[.W.[.W.W.tXtXtXtXtXtXtXtXtXtXtXtXtXtXtXtXtXtX",
"tXtXtXtXtXtXtXtXtXtXtXtXtXtXtXtXtXtXtXtX;X,X,X,Xa.u.a.d.i.i.y.y.y.9.%X$X+X%X.X|.|.|.tXtXtXtXtXtXtXtXtXtXtXtXtXtXtXtXtXtXtXtXtXtX",
"tXtXtXtXtXtXtXtXtXtXtXtXtXtXtXtXtXtXtXtXtXtXtXtX,X,X,X;X;X,X,X,X>X%X-X:X&XtXtXtXtXtXtXtXtXtXtXtXtXtXtXtXtXtXtXtXtXtXtXtXtXtXtXtX"
};
