/* XPM */
static char *_600077459155[] = {
/* columns rows colors chars-per-pixel */
"64 64 256 2 ",
"   c black",
".  c #0000A8",
"X  c #00A800",
"o  c #00A8A8",
"O  c #A80000",
"+  c #A800A8",
"@  c #A85400",
"#  c gray66",
"$  c gray33",
"%  c #5454FC",
"&  c #54FC54",
"*  c #54FCFC",
"=  c #FC5454",
"-  c #FC54FC",
";  c #FCFC54",
":  c gray99",
">  c #ECECEC",
",  c gainsboro",
"<  c #D0D0D0",
"1  c #C0C0C0",
"2  c #B4B4B4",
"3  c gray66",
"4  c #989898",
"5  c gray55",
"6  c #7C7C7C",
"7  c gray44",
"8  c #646464",
"9  c gray33",
"0  c #484848",
"q  c gray22",
"w  c #2C2C2C",
"e  c #202020",
"r  c #FC0000",
"t  c #EC0000",
"y  c #E00000",
"u  c #D40000",
"i  c #C80000",
"p  c #BC0000",
"a  c #B00000",
"s  c #A40000",
"d  c #980000",
"f  c #880000",
"g  c #7C0000",
"h  c #700000",
"j  c #640000",
"k  c #580000",
"l  c #4C0000",
"z  c #400000",
"x  c #FCD8D8",
"c  c #FCB8B8",
"v  c #FC9C9C",
"b  c #FC7C7C",
"n  c #FC5C5C",
"m  c #FC4040",
"M  c #FC2020",
"N  c #FC0000",
"B  c #FCA85C",
"V  c #FC9840",
"C  c #FC8820",
"Z  c #FC7800",
"A  c #E46C00",
"S  c #CC6000",
"D  c #B45400",
"F  c #9C4C00",
"G  c #FCFCD8",
"H  c #FCFCB8",
"J  c #FCFC9C",
"K  c #FCFC7C",
"L  c #FCF85C",
"P  c #FCF440",
"I  c #FCF420",
"U  c #FCF400",
"Y  c #E4D800",
"T  c #CCC400",
"R  c #B4AC00",
"E  c #9C9C00",
"W  c #848400",
"Q  c #706C00",
"!  c #585400",
"~  c #404000",
"^  c #D0FC5C",
"/  c #C4FC40",
"(  c #B4FC20",
")  c #A0FC00",
"_  c #90E400",
"`  c #80CC00",
"'  c #74B400",
"]  c #609C00",
"[  c #D8FCD8",
"{  c #BCFCB8",
"}  c #9CFC9C",
"|  c #80FC7C",
" . c #60FC5C",
".. c #40FC40",
"X. c #20FC20",
"o. c #00FC00",
"O. c #00FC00",
"+. c #00EC00",
"@. c #00E000",
"#. c #00D400",
"$. c #04C800",
"%. c #04BC00",
"&. c #04B000",
"*. c #04A400",
"=. c #049800",
"-. c #048800",
";. c #047C00",
":. c #047000",
">. c #046400",
",. c #045800",
"<. c #044C00",
"1. c #044000",
"2. c #D8FCFC",
"3. c #B8FCFC",
"4. c #9CFCFC",
"5. c #7CFCF8",
"6. c #5CFCFC",
"7. c #40FCFC",
"8. c #20FCFC",
"9. c #00FCFC",
"0. c #00E4E4",
"q. c #00CCCC",
"w. c #00B4B4",
"e. c #009C9C",
"r. c #008484",
"t. c #007070",
"y. c #005858",
"u. c #004040",
"i. c #5CBCFC",
"p. c #40B0FC",
"a. c #20A8FC",
"s. c #009CFC",
"d. c #008CE4",
"f. c #007CCC",
"g. c #006CB4",
"h. c #005C9C",
"j. c #D8D8FC",
"k. c #B8BCFC",
"l. c #9C9CFC",
"z. c #7C80FC",
"x. c #5C60FC",
"c. c #4040FC",
"v. c #2024FC",
"b. c #0004FC",
"n. c #0000FC",
"m. c #0000EC",
"M. c #0000E0",
"N. c #0000D4",
"B. c #0000C8",
"V. c #0000BC",
"C. c #0000B0",
"Z. c #0000A4",
"A. c #000098",
"S. c #000088",
"D. c #00007C",
"F. c #000070",
"G. c #000064",
"H. c #000058",
"J. c #00004C",
"K. c #000040",
"L. c #282828",
"P. c #FCE034",
"I. c #FCD424",
"U. c #FCCC18",
"Y. c #FCC008",
"T. c #FCB400",
"R. c #B420FC",
"E. c #A800FC",
"W. c #9800E4",
"Q. c #8000CC",
"!. c #7400B4",
"~. c #60009C",
"^. c #500084",
"/. c #440070",
"(. c #340058",
"). c #280040",
"_. c #FCD8FC",
"`. c #FCB8FC",
"'. c #FC9CFC",
"]. c #FC7CFC",
"[. c #FC5CFC",
"{. c #FC40FC",
"}. c #FC20FC",
"|. c #FC00FC",
" X c #E000E4",
".X c #C800CC",
"XX c #B400B4",
"oX c #9C009C",
"OX c #840084",
"+X c #6C0070",
"@X c #580058",
"#X c #400040",
"$X c #FCE8DC",
"%X c #FCE0D0",
"&X c #FCD8C4",
"*X c #FCD4BC",
"=X c #FCCCB0",
"-X c #FCC4A4",
";X c #FCBC9C",
":X c #FCB890",
">X c #FCB080",
",X c #FCA470",
"<X c #FC9C60",
"1X c #F0945C",
"2X c #E88C58",
"3X c #DC8854",
"4X c #D08050",
"5X c #C87C4C",
"6X c #BC7848",
"7X c #B47044",
"8X c #A86840",
"9X c #A0643C",
"0X c #9C6038",
"qX c #905C34",
"wX c #885830",
"eX c #80502C",
"rX c #744C28",
"tX c #6C4824",
"yX c #5C4020",
"uX c #543C1C",
"iX c #483818",
"pX c #403018",
"aX c #382C14",
"sX c #28200C",
"dX c #600064",
"fX c #006464",
"gX c #006060",
"hX c #00001C",
"jX c #00002C",
"kX c #302410",
"lX c #480048",
"zX c #500050",
"xX c #000034",
"cX c gray11",
"vX c #4C4C4C",
"bX c gray36",
"nX c gray25",
"mX c gray19",
"MX c #343434",
"NX c #D8F4F4",
"BX c #B8E8E8",
"VX c #9CDCDC",
"CX c #74C8C8",
"ZX c #48C0C0",
"AX c #20B4B4",
"SX c #20B0B0",
"DX c #00A4A4",
"FX c #009898",
"GX c #008C8C",
"HX c #008484",
"JX c #007C7C",
"KX c #007878",
"LX c #007474",
"PX c #007070",
"IX c #006C6C",
"UX c #980088",
/* pixels */
"fXfXfXfXfXfXfXfXfXfXfXfXfXfXfXfXfXfXfXfXfXfXfXfXfXfXfXfXfXfXfXfXfXfXfXfXfXfXfXfXfXfXfXfXfXfXfXfXfXfXfXfXfXfXfXfXfXfXfXfXfXfXfXfX",
"fXfXfXfXfXfXfXfXfXfXfXfXfXfXfXfXfXfXfXfXfXfXfXfXfXfXfXfXfXfXfXfXfXfXfXfXfXfXfXfXfXfXfXfXfXfXfXfXfXfXfXfXfXfXfXfXfXfXfXfXfXfXfXfX",
"fXfXfXfXfXfXfXfXfXfXfXfXfXfXfXfXfXfXfXfXfXfXfXfXfXfXfXfXfXfXfXfXfXfXfXfXfXfXfXfXfXfXfXfXfXfXfXfXfXfXfXfXfXfXfXfXfXfXfXfXfXfXfXfX",
"fXfXfXfXfXfXfXfXfXfXfXfXfXfXfXfXfXfXfXfXfXfXfXfXfXfXfXfXgXgXgXgXgXgXgXfXgXgXfXfXfXfXfXfXfXfXfXfXfXfXfXfXfXfXfXfXfXfXfXfXfXfXfXfX",
"fXfXfXfXfXfXfXfXfXfXfXfXfXfXfXfXfXfXfXfXfXfXfXfXgXgXgXgXgXgXgXgXfXfXfXfXfXfXfXfXfXfXfXfXfXfXfXfXfXfXgXgXfXgXfXfXfXfXfXfXfXfXfXfX",
"fXfXfXfXfXfXfXfXfXfXnXnXnXnXnXnXfXfXfXfXfXfXfXfXfXfXfXfXfXfXfXfXfXfXfXfXfXfXfXfXfXfXfXfXfXgXgXgXgXgXgXgXgXgXgXgXgXgXgXfXfXfXfXfX",
"fXgXgXgXgXgXnXnXnXnXnXnXnXnXnXnXnXy.gXgXgXgXgXgXgXgXgXgXfXfXfXfXfXfXfXgXgXgXgXgXgXgXgXfXgXfXgXgXgXgXgXgXgXgXgXgXgXgXgXgXgXgXgXgX",
"fXfXgXgXgXnXnXnXnXnXnXnXnXnXnXnXnXnX9 8 gXgXgXgXgXrXrXrXyXgXgXfXgXfXfXfXfXfXfXfXfXfXfXfXfXfXfXfXfXfXgXgXgXgXgXgXfXgXgXgXfXgXgXgX",
"fXfXfXnXnXnXnXnXq nXnXnXq q q q q nXnXnX9 8 8 8 yXtXrXtXyXyXyX9 8 fXgXgXgXgXgXgXgXgXgXgXgXgXgXgXgXgXgXq q q MXMXMXgXgXgXgXgXgXgX",
"gXnXnXq q q q MXMXMXnXnXq q MXq MXMXMXnXnX9 8 8 yXyXyXyXtXtXyXpX9 8 8 8 8 8 9 pXpXpXpXpXvXgXgXgXgXbXMXMXq MXMXMXq MXvXgXgXgXgXgX",
"nXnXnXq nXnXMXMXq MXMXq MXMXMXMXMXMXMXMXnXnX0 8 pXiXiXiXyXyXiXpXq 8 8 8 9 9 pXpXiXiXpXiXpXiXpXnXbXbXMXL.L.MXL.L.MXL.nXvXvXvXnXnX",
"nXnXq MXnXnXMXMXMXMXMXq q MXMXmXmXmXmXmXMXnXL.9 0 pXpXiXiXiXpXpXq 9 8 9 pXpXpXiXpXpXpXpXiXiXiXpXnXbXMXL.L.MXL.L.L.L.nXvXnXnXnXnX",
"q q MXMXq q q MXmXmXmXq q MXmXmXmXw w w mXMXL.0 8 0 pXpXpXpXpXq 0 9 9 pXpXiXpXpXaXpXaXpXpXiXiXpXaXnXvXMXMXMXL.L.L.nXvXnXq q nXq ",
"MXMXmXMXMXq q MXmXw w MXMXmXMXmXMXw w L.mXMXL.e 9 8 0 q q q q q 9 q pXiXiXpXpXaXpXpXpXaXaXpXpXpXaXaXnXvXMXL.L.nXvXvXnXq q q q q ",
"q q mXMXMXmXMXMXMXw w mXMXMXmXmXMXmXL.L.mXMXL.e 0 8 8 8 8 9 9 0 pXpXpXiXiXpXaXaXpXiXiXpXaXaXaXaXaXaXaXbXvXvXvXvXvXnXq q q q MXq ",
"nXnXMXMXMXmXmXMXmXMXmXMXMXMXMXMXMXMXw L.w MXL.e q 9 8 8 9 0 iXiXpXpXaXpXpXpXaXpXpXiXiXpXaXkXkXaXaXaXaXnXbXbXbXvXnXq q MXMXMXMXq ",
"nXnXq mXmXMXMXMXw MXMXmXmXmXmXMXw w MXL.w w L.e q 9 8 9 pXpXiXiXpXpXaXpXpXpXaXaXpXpXpXpXaXkXkXaXpXaXaXaXnXbXbXnXnXq q MXMXMXq MX",
"q q q MXMXMXMXMXMXMXMXmXw w w mXw L.w w L.w L.e q nX9 0 iXpXpXpXaXaXaXpXpXaXaXaXaXaXaXaXkXaXaXpXpXkXkXaXnXbX8 nXq q q MXMXMXq MX",
"MXMXmXMXMXMXmXw MXMXmXMXw w mXMXMXL.L.MXw L.L.e q nXiXiXpXaXpXaXaXaXaXaXaXaXaXpXpXpXaXaXaXkXaXpXpXkXaXkX0 0 8 nXq q MXq MXMXMXMX",
"MXmXMXMXmXmXw mXmXmXmXMXmXw w w w L.L.w L.L.L.e q nXiXiXpXpXaXaXpXaXpXaXaXaXaXpXpXpXaXaXpXaXaXaXaXaXpXkX0 0 8 nXq q q MXMXMXmXmX",
"mXMXMXmXw w mXmXMXMXmXMXMXmXw L.L.w w L.e L.e e q pXiXpXpXaXaXpXpXpXpXpXaXpXpXiXiXpXaXpXpXaXkXkXaXpXpXkXaX0 8 nXq q q mXmXMXmXMX",
"mXmXw MXmXw mXmXMXw w mXmXw L.L.w MXMXL.L.e e e q pXpXpXaXpXpXpXpXpXpXpXaXaXpXiXpXaXaXpXaXaXaXkXkXaXaXkXkX0 8 nXq q q mXmXmXmXmX",
"q MXmXmXmXMXw w MXw L.w w L.L.L.w MXw w L.L.e e q pXiXpXpXpXpXaXaXpXpXpXaXaXpXpXaXpXaXpXaXaXkXpXaXkXkXkXkX0 vXnXq q q q mXmXmXMX",
"MXq MXmXMXmXw L.MXmXw L.L.L.w w L.w MXw w L.e w nXpXpXaXpXaXpXpXaXpXaXaXkXaXaXpXpXpXaXpXpXaXkXaXaXkXaXkXkX0 nXnXq MXMXMXq q w mX",
"mXMXMXmXmXw w L.mXMXmXL.w L.w MXL.w w w L.e w q 0 pXpXaXaXpXaXpXaXaXpXaXaXkXkXaXaXaXaXpXaXaXaXaXkXsXkXkXw 0 nXq q MXMXMXMXMXmXMX",
"q w mXw MXmXw L.mXMXmXw w L.w w w e L.L.L.e q nXbXaXpXaXaXaXaXpXaXaXaXaXpXkXkXkXaXaXpXpXaXkXkXkXsXkXkXw q 0 nXnXq MXmXq mXMXq q ",
"MXmXw mXMXmXL.L.w mXw w L.w L.w L.e e e e q nX0 bX0 aXaXaXpXpXpXaXkXaXkXaXaXaXaXpXkXaXaXkXkXsXsXsXkXw q 0 0 bXnXq MXmXmXmXMXw MX",
"MXmXw mXw L.w w w w w L.w w L.L.L.e e e q nX0 vX8 bXaXkXaXaXaXaXkXsXpXaXpXpXaXpXaXaXkXkXaXaXkXsXsXw q 0 0 9 bX8 q q q mXq MXw mX",
"mXw L.L.L.L.w w L.L.L.L.L.e e e e w MXq nX0 vXbX7 7 0 aXkXkXkXsXsXaXpXpXpXaXaXaXaXkXsXkXaXaXkXw q q 0 0 9 bX8 8 bXq q mXmXmXw mX",
"w L.e e e e e e e e e e e e e w q nXnX0 0 vXbX7 6 6 bX0 aXaXsXsXkXaXaXpXpXaXkXaXaXkXsXsXkXkXw q q 0 vXvXbX8 8 8 bX0 mXmXw w w w ",
"e e e e e e e e e e w w w q nXnX0 0 0 yXyXyXyX9 6 5 5 bX0 q sXsXkXkXkXkXkXkXaXkXkXkXsXsXkXw q q 0 vXvXbX8 8 8 bX9 9 L.L.w L.L.L.",
"e e w q q nXnXnXnXnXnX0 0 0 0 0 0 yXyXyXiXiXyXyX9 5 6 7 bXbX0 0 0 q w kXsXkXkXkXkXkXw q 0 0 tXrXrXrXyXyXtXbXbX9 9 vX0 L.L.L.e e ",
"w MXMXMXMXq q 0 0 0 0 0 bXbX9 yXyXyXyXiXpXiXyXyXiX9 7 7 8 8 8 9 9 9 0 0 0 0 0 0 0 0 0 rXrXtXyXyXyXyXyXyXyXyXyXvXvXvXvX0 L.L.e e ",
"MXnXnXvXvXvXvXMX0 bX8 8 9 yXyXyXiXyXyXiXiXiXiXiXiXiX9 8 8 8 9 9 vX9 9 bXbXbXbXbXbXrXrXrXtXyXyXyXtXyXyXtXyXyXyXyXvXvXvX9 0 L.e e ",
"vXvX0 vXnXvXvXvXMX8 8 9 yXyXiXiXiXpXpXiXyXiXpXiXpXiXpX9 8 9 9 9 9 9 vXnXbX8 8 rXrXrXrXyXtXyXtXrXtXyXtXuXyXtXyXyXuXbX8 bXbXq q q ",
"vX0 0 vXvXnXnXvXMX0 9 yXyXiXpXiXiXyXyXiXiXpXiXiXiXpXpX0 8 0 9 vX0 0 nXq bX8 rXrXrXrXrXyXyXtXtXtXyXyXtXtXuXyXtXyXuXiX8 8 bXbXvXvX",
"8 nXnXvXq nXvXnXMX0 yXyXiXiXpXpXiXyXyXiXpXpXpXpXaXaXaXaX8 9 9 vXq q q 0 bXrXtXrXtXyXtXtXyXyXyXyXyXtXtXyXuXyXtXyXuXiXbX8 8 bXbXbX",
"8 q q nXq q nXnXMX0 yXiXiXyXiXpXpXiXiXiXpXpXiXpXaXaXaXaX8 9 9 0 q q q 0 tXrXtXyXtXtXyXrXtXyXyXuXuXyXyXyXuXyXyXuXiXiXbX8 7 7 8 8 ",
"8 9 MXq q q q MX0 yXyXyXiXiXiXpXpXpXpXpXaXiXpXiXpXaXaXw 8 vX9 0 nXq 0 0 tXtXyXyXyXtXtXrXrXtXuXyXyXuXiXyXiXuXuXuXiXnXbX7 6 6 7 8 ",
"8 8 9 MXMXMXMX0 0 yXyXyXpXiXpXpXiXiXiXpXaXpXiXpXpXaXaXq 8 0 nXnXnXq 0 bXyXyXtXtXyXyXyXtXtXuXuXtXtXyXuXiXiXiXuXiXiXnX8 7 6 7 8 8 ",
"8 8 8 0 0 0 0 0 yXiXiXiXiXpXpXiXiXyXiXpXaXpXpXpXpXaXw q 8 0 q q q 0 0 bX0 yXyXyXyXtXtXyXyXuXyXtXyXtXyXuXiXiXiXiXnX0 8 7 7 8 8 bX",
"yXyX9 8 8 8 8 9 yXpXiXiXiXpXpXpXiXiXpXpXaXaXaXpXaXw q 0 8 bX0 0 0 0 bXbX9 yXyXyXtXtXtXtXyXuXyXtXtXuXtXyXiXiXiXq nXbX8 8 8 8 bX9 ",
"yXuXyX0 bX8 8 yXiXiXpXyXyXiXpXpXpXpXpXaXaXaXaXaXw q nX0 8 8 bXbXbXbXbX8 8 0 yXtXyXyXtXyXyXuXuXyXuXyXyXuXuXiXiXnX0 bXyXyXyXyXyXyX",
"uXiXyXiX0 bX8 iXiXiXpXyXyXiXpXaXaXaXpXpXaXaXw w q nX0 0 nXnXnXnXnXnXq 8 8 9 uXyXyXuXyXyXuXuXuXuXuXyXtXyXuXiXq nXyXyXyXuXyXyXyXyX",
"yXyXyXiX0 bXbXiXiXiXpXpXiXiXpXaXaXaXaXaXw w q q nXnXq q q q nXnXq q q mXmX8 0 uXyXyXuXuXuXuXyXtXiXiXyXuXuXiXq yXyXuXyXyXyXuXyXyX",
"iXuXuXiXiX0 bXpXpXpXpXiXiXpXpXaXaXaXw w q q nXnXq q q MXmXmXq q mXMXmXmXq MX9 0 uXuXuXuXiXyXtXuXyXiXuXiXiXq yXyXuXuXuXyXuXuXuXuX",
"uXiXuXpXiX0 bXpXpXaXaXaXpXpXaXaXw w w q q nXq MXmXMXMXmXmXmXmXmXmXmXmXMXnXnXMX9 0 uXuXiXuXyXyXtXyXiXiXiXq nXyXyXuXiXiXyXuXiXuXiX",
"uXiXiXiXiXpX0 pXpXaXaXaXpXaXaXw w q q nXnXq MXmXw mXMXmXw mXmXMXMXnXmXMXnXq MXMX9 0 uXiXiXuXyXyXyXiXiXq nXyXuXuXyXiXiXuXiXiXiXuX",
"uXuXiXpXpXpX0 pXpXaXaXaXw w w q q nXnXq q MXq q mXw w w w mXMXmXmXMXmXmXmXMXMXMX0 9 0 iXiXiXuXiXiXiXq nXnXyXyXiXuXyXyXuXuXuXiXiX",
"iXiXiXiXpXpX0 0 aXaXaXw q q nXq nXnXmXmXmXmXq nXnXMXmXw w mXMXw w mXMXw w mXmXmXMX8 9 0 iXiXiXiXiXq nX0 9 uXuXuXpXpXiXiXuXuXiXpX",
"iXpXpXiXiXpX0 9 0 nXnXnX0 nXq mXmXmXmXmXmXMXMXnXnXMXmXw w mXmXw L.w mXw w w w w w bXbX9 0 nXnXnXnX0 0 9 8 uXiXuXpXpXiXpXuXuXpXuX",
"iXiXpXiXpXpX0 9 bX0 0 0 0 nXMXmXmXMXmXmXmXmXmXMXMXmXw w w w w L.MXL.w w w w w w w 0 bX8 7 7 8 9 bX9 bXbX8 iXiXiXpXiXpXpXuXuXiXuX",
"iXpXiXiXpXnX0 9 bXbXbXbXnXnXnXmXMXmXw w w w w mXw w w w w w w L.mXw L.MXw L.w mXMXmX0 7 6 7 9 bX9 9 9 9 8 iXiXiXiXiXpXpXiXiXpXiX",
"iXiXiXpXnX0 9 9 8 8 8 8 nXnXq MXmXw w mXMXmXw mXw w mXmXw w w L.w w L.w MXw L.w MXL.0 bX7 9 bXbX9 vXvXvX9 9 pXpXpXpXpXpXiXiXpXpX",
"pXpXpXnX0 0 9 9 8 7 6 6 nXnXq mXw w mXq q w w w w mXmXMXmXL.L.L.L.L.w L.L.L.w w mXmXMX0 bX9 bXbX9 vX0 0 9 8 9 pXpXpXpXpXpXpXpXpX",
"pXpXq 0 0 9 9 bX8 6 6 6 q mXMXmXw w mXq q w w w w mXMXnXq MXw L.L.w MXw w L.w mXmXL.MXq bX9 9 9 9 vXvX0 nX0 8 9 nXpXpXpXpXpXpXpX",
"nXnXnX0 9 9 bXbX8 6 6 7 MXmXmXw w w w w mXw w L.w w MXq mXMXmXL.w L.w L.MXw L.w w L.MXL.q 0 9 9 vX9 9 nXq nX0 0 0 nXnXnXnXnXnXnX",
"nXnX0 9 9 bXbX8 7 7 7 8 MXMXmXMXmXmXw w w w w MXmXw mXMXw MXw L.MXMXw L.L.L.L.w L.w L.L.e q 9 vX0 vX9 0 nX0 q 0 0 0 9 9 0 0 0 nX",
"nXnXnXnXnXnXnXnXnX9 8 8 0 mXmXMXMXMXmXw w w w mXmXw w mXL.MXL.L.w MXmXw L.L.L.L.w MXw L.e q 9 vX0 vXvX0 9 nXq 0 0 9 9 9 9 9 nXnX",
"q q q nXnXq q q nXnXnX9 8 w mXMXMXMXw MXmXw w L.L.L.w w L.mXMXw L.w w L.L.w L.w MXMXw L.e q vXvX0 0 0 9 0 nXq q 9 9 8 8 9 9 q q ",
"MXq q q q q MXMXMXq nXnX9 0 w mXmXmXL.w MXw L.L.L.w L.MXL.w mXMXMXmXL.L.L.L.L.L.w w w L.e q vX0 0 vXvX0 nXq q MXMX9 8 9 q q q mX",
"mXMXMXq MXw q w MXq q nX9 0 w w L.L.L.L.L.L.w L.w L.w MXL.L.w MXmXL.L.w w L.L.L.L.L.L.e e q vXvX0 9 9 nXq q nXnXq 9 8 q q q MXmX",
"w w w MXMXw w MXMXw q nXnX9 0 w w L.w L.L.w w w w w w w L.L.L.L.w w w w w w L.L.L.L.e e e q q 9 0 0 nXq nX0 0 nXq 9 8 q q q w w ",
"mXMXMXMXMXw w q q MXq q nX9 0 0 w L.w w w w w w L.L.L.L.L.L.L.w w MXMXL.w L.L.L.L.e e e q q q 9 vXvXnXnX0 9 9 nXq 9 8 q q q MXw "
};
