/* XPM */
static char *_600077435199[] = {
/* columns rows colors chars-per-pixel */
"64 64 256 2 ",
"   c black",
".  c #0000A8",
"X  c #00A800",
"o  c #00A8A8",
"O  c #A80000",
"+  c #A800A8",
"@  c #A85400",
"#  c gray66",
"$  c gray33",
"%  c #5454FC",
"&  c #54FC54",
"*  c #54FCFC",
"=  c #FC5454",
"-  c #FC54FC",
";  c #FCFC54",
":  c gray99",
">  c #ECECEC",
",  c gainsboro",
"<  c #D0D0D0",
"1  c #C0C0C0",
"2  c #B4B4B4",
"3  c gray66",
"4  c #989898",
"5  c gray55",
"6  c #7C7C7C",
"7  c gray44",
"8  c #646464",
"9  c gray33",
"0  c #484848",
"q  c gray22",
"w  c #2C2C2C",
"e  c #202020",
"r  c #FC0000",
"t  c #EC0000",
"y  c #E00000",
"u  c #D40000",
"i  c #C80000",
"p  c #BC0000",
"a  c #B00000",
"s  c #A40000",
"d  c #980000",
"f  c #880000",
"g  c #7C0000",
"h  c #700000",
"j  c #640000",
"k  c #580000",
"l  c #4C0000",
"z  c #400000",
"x  c #FCD8D8",
"c  c #FCB8B8",
"v  c #FC9C9C",
"b  c #FC7C7C",
"n  c #FC5C5C",
"m  c #FC4040",
"M  c #FC2020",
"N  c #FC0000",
"B  c #FCA85C",
"V  c #FC9840",
"C  c #FC8820",
"Z  c #FC7800",
"A  c #E46C00",
"S  c #CC6000",
"D  c #B45400",
"F  c #9C4C00",
"G  c #FCFCD8",
"H  c #FCFCB8",
"J  c #FCFC9C",
"K  c #FCFC7C",
"L  c #FCF85C",
"P  c #FCF440",
"I  c #FCF420",
"U  c #FCF400",
"Y  c #E4D800",
"T  c #CCC400",
"R  c #B4AC00",
"E  c #9C9C00",
"W  c #848400",
"Q  c #706C00",
"!  c #585400",
"~  c #404000",
"^  c #D0FC5C",
"/  c #C4FC40",
"(  c #B4FC20",
")  c #A0FC00",
"_  c #90E400",
"`  c #80CC00",
"'  c #74B400",
"]  c #609C00",
"[  c #D8FCD8",
"{  c #BCFCB8",
"}  c #9CFC9C",
"|  c #80FC7C",
" . c #60FC5C",
".. c #40FC40",
"X. c #20FC20",
"o. c #00FC00",
"O. c #00FC00",
"+. c #00EC00",
"@. c #00E000",
"#. c #00D400",
"$. c #04C800",
"%. c #04BC00",
"&. c #04B000",
"*. c #04A400",
"=. c #049800",
"-. c #048800",
";. c #047C00",
":. c #047000",
">. c #046400",
",. c #045800",
"<. c #044C00",
"1. c #044000",
"2. c #D8FCFC",
"3. c #B8FCFC",
"4. c #9CFCFC",
"5. c #7CFCF8",
"6. c #5CFCFC",
"7. c #40FCFC",
"8. c #20FCFC",
"9. c #00FCFC",
"0. c #00E4E4",
"q. c #00CCCC",
"w. c #00B4B4",
"e. c #009C9C",
"r. c #008484",
"t. c #007070",
"y. c #005858",
"u. c #004040",
"i. c #5CBCFC",
"p. c #40B0FC",
"a. c #20A8FC",
"s. c #009CFC",
"d. c #008CE4",
"f. c #007CCC",
"g. c #006CB4",
"h. c #005C9C",
"j. c #D8D8FC",
"k. c #B8BCFC",
"l. c #9C9CFC",
"z. c #7C80FC",
"x. c #5C60FC",
"c. c #4040FC",
"v. c #2024FC",
"b. c #0004FC",
"n. c #0000FC",
"m. c #0000EC",
"M. c #0000E0",
"N. c #0000D4",
"B. c #0000C8",
"V. c #0000BC",
"C. c #0000B0",
"Z. c #0000A4",
"A. c #000098",
"S. c #000088",
"D. c #00007C",
"F. c #000070",
"G. c #000064",
"H. c #000058",
"J. c #00004C",
"K. c #000040",
"L. c #282828",
"P. c #FCE034",
"I. c #FCD424",
"U. c #FCCC18",
"Y. c #FCC008",
"T. c #FCB400",
"R. c #B420FC",
"E. c #A800FC",
"W. c #9800E4",
"Q. c #8000CC",
"!. c #7400B4",
"~. c #60009C",
"^. c #500084",
"/. c #440070",
"(. c #340058",
"). c #280040",
"_. c #FCD8FC",
"`. c #FCB8FC",
"'. c #FC9CFC",
"]. c #FC7CFC",
"[. c #FC5CFC",
"{. c #FC40FC",
"}. c #FC20FC",
"|. c #FC00FC",
" X c #E000E4",
".X c #C800CC",
"XX c #B400B4",
"oX c #9C009C",
"OX c #840084",
"+X c #6C0070",
"@X c #580058",
"#X c #400040",
"$X c #FCE8DC",
"%X c #FCE0D0",
"&X c #FCD8C4",
"*X c #FCD4BC",
"=X c #FCCCB0",
"-X c #FCC4A4",
";X c #FCBC9C",
":X c #FCB890",
">X c #FCB080",
",X c #FCA470",
"<X c #FC9C60",
"1X c #F0945C",
"2X c #E88C58",
"3X c #DC8854",
"4X c #D08050",
"5X c #C87C4C",
"6X c #BC7848",
"7X c #B47044",
"8X c #A86840",
"9X c #A0643C",
"0X c #9C6038",
"qX c #905C34",
"wX c #885830",
"eX c #80502C",
"rX c #744C28",
"tX c #6C4824",
"yX c #5C4020",
"uX c #543C1C",
"iX c #483818",
"pX c #403018",
"aX c #382C14",
"sX c #28200C",
"dX c #600064",
"fX c #006464",
"gX c #006060",
"hX c #00001C",
"jX c #00002C",
"kX c #302410",
"lX c #480048",
"zX c #500050",
"xX c #000034",
"cX c gray11",
"vX c #4C4C4C",
"bX c gray36",
"nX c gray25",
"mX c gray19",
"MX c #343434",
"NX c #D8F4F4",
"BX c #B8E8E8",
"VX c #9CDCDC",
"CX c #74C8C8",
"ZX c #48C0C0",
"AX c #20B4B4",
"SX c #20B0B0",
"DX c #00A4A4",
"FX c #009898",
"GX c #008C8C",
"HX c #008484",
"JX c #007C7C",
"KX c #007878",
"LX c #007474",
"PX c #007070",
"IX c #006C6C",
"UX c #980088",
/* pixels */
"fXfXfXfXfXfXfXfXfXfXfXfXfXfXfXfXfXfXfXfXfXfXfXfXfXfXfXfXfXfXfXfXfXfXfXfXfXfXfXfXfXfXfXfXfXfXfXfXfXfXfXfXfXfXfXfXfXfXfXfXfXfXfXfX",
"fXfXfXfXfXfXfXfXfXfXfXfXfXfXfXfXfXfXfXfXfXfXfXfXfXfXfXfXfXfXfXfXfXfXfXfXfXfXfXfXfXfXfXfXfXfXfXfXfXfXfXfXfXfXfXfXfXfXfXfXfXfXfXfX",
"fXfXfXfXfXfXfXfXfXfXfXfXfXfXfXfXfXfXfXfXfXfXfXfXfXfXfXfXfXfXfXfXfXfXfXfXfXfXfXfXfXfXfXfXfXfXfXfXfXfXfXfXfXfXfXfXfXfXfXfXfXfXfXfX",
"fXfXfXfXfXfXfXfXfXfXfXfXfXfXfXfXfXfXfXfXfXfXfXfXfXfXfXfXfXfXfXfXfXfXfXfXfXfXfXfXfXfXfXfXfXfXfXfXfXfXfXfXfXfXfXfXfXfXfXfXfXfXfXfX",
"fXfXfXfXfXfXfXfXfXfXfXfXfXfXfXfXfXfXfXfXfXfXgXgXgXgXgXfXfXfXfXfXfXfXfXfXfXfXfXfXfXfXfXfXfXfXfXfXfXfXfXgXgXgXgXgXfXfXfXfXfXfXfXfX",
"fXfXfXfXgXgXfXfXfXfXfXfXfXfXfXfXfXfXfXgXgXgXgXgXgXgXgXgXfXfXfXfXfXfXfXfXfXfXfXfXfXfXfXfXfXgXgXfXfXgXgXgXgXgXgXgXgXgXgXgXgXfXfXfX",
"fXgXgXgXgXgXgXgXgXgXgXfXfXfXfXgXgXgXgXgXgXgXgXgXgXgXgXgXgXgXfXgXfXfXfXfXfXfXfXfXfXfXfXfXfXfXfXfXfXfXfXfXfXfXfXfXfXfXfXfXfXfXfXfX",
"fXfXgXgXgXgXgXnXnXnXnXnXnXnXfXfXfXfXfXfXfXfXfXfXfXfXfXfXfXfXfXfXfXfXfXfXfXfXfXfXfXfXfXfXfXfXfXfXfXfXfXfXfXfXfXfXfXfXfXfXfXfXfXfX",
"fXfXfXfXnXnXnXnXnXnXnXnXnXnXnXbX7 7 7 yXyXyXyXuXuXbXfXfXfXgXgXgXgXfXfXfXfXfXfXfXfXfXgXgXgXgXgXgXgXgXgXgXgXgXgXgXgXfXfXfXfXfXfXfX",
"gXnXnXnXnXq q MXq q nXq nXmXq nXbXbXyXyXyXyXyXiXuXiXiXbXbX7 7 vXvXvXvXvXvXvXvXfXgXgXgXgXgXgXgXgXgXgXgXyXyXyXiXyXiXfXfXfXfXfXfXfX",
"nXnXnXMXq MXMXmXMXMXq mXq nXq nXq vXuXuXyXuXiXiXyXuXiXpX7 7 vXvXnXvXvXnXq q nXq q bXfXfXfXfXgXgXgX7 yXyXiXiXpXiXiXpXnXfXfXfXnXnX",
"nXnXq mXq mXnXnXmXmXq mXMXq nXmXq q vXpXiXuXiXiXuXiXpXpXvX7 nXnXq q nXvXvXnXq w w nXbXbX7 7 7 7 7 7 yXiXpXpXiXpXpXaXnXvX7 nXnXnX",
"q q MXMXq q nXq mXmXMXw mXMXq q mXq q vXpXpXiXiXiXpXaXpXnX7 q q q q nXvXvXq w w L.nXvXvX9 9 9 9 7 7 iXiXaXaXpXaXaXaXnXvXnXnXnXq ",
"MXMXmXMXMXnXMXmXmXw w w w mXMXq q mXmXq nXaXpXpXpXaXaXnXnXbXq MXMXMXnXnXnXMXw L.nX9 9 vXvX0 nX0 0 vX0 nXaXaXpXaXaXnXnXnXnXnXq q ",
"q q mXmXMXMXnXq mXMXMXw w MXmXw mXmXq q vXvXnXnXnXnXnXvXvXbXvXMXMXMXMXq MXw w nX9 vXvX0 nXnXnX0 nXnXvX0 nXnXnXnXnXnXnXnXq MXMXq ",
"nXnXMXmXmXMXmXnXmXMXMXmXL.w MXmXw mXq q MXvXbXbXbXbXbXbXbXbXbXvXnXMXMXw w w nXvXvX0 vXvX0 nX0 vXvXnX0 nXnXvXvXvXnXnXnXq MXmXMXq ",
"nXnXq mXmXmXMXmXmXMXq MXL.L.mXMXw w MXq MXvXbXbXbXyXyXyXyXyXyXbXvXnXnXnXnXnXvXvX0 0 vXvX0 nX0 vXnXnXnXq nX0 vXnXnXq q MXmXMXq MX",
"q q q mXMXMXw w w mXmXL.MXmXL.w mXw MXMXmXvXbXbXyXyXyXuXuXuXuXuXuXbXvXvXvXvXvX0 nXnX0 0 nXnXnX0 0 nX0 0 nXq vXnXMXq nXnXMXq q MX",
"MXMXmXq MXw w q MXMXL.L.MXMXL.L.L.w mXmXw vXbXyXyXyXuXiXuXiXuXiXuXuXbXbX8 9 0 nX0 0 nXnX0 0 nXnX0 q nXnX0 q vXnXMXMXnXnXMXq MXMX",
"MXmXMXMXw w MXnXq MXL.MXw w L.L.L.w mXw nXvXyXyXuXyXyXuXuXuXiXyXyXuXuXnXbXvX0 0 0 nXnX0 nXnXnX0 nXq nXnX0 q vXnXq MXMXmXnXmXmXmX",
"mXMXMXq q MXw MXmXw L.MXMXmXw L.L.L.L.e vXyXyXuXuXuXyXyXyXyXyXyXiXiXiXiXvX0 nXnXnXnX0 0 nXq q nXnXnX0 nXnXq vXq q mXMXq MXmXmXMX",
"mXmXw MXq MXMXw w w w mXMXmXw mXL.e e MXvXyXuXuXuXiXyXyXyXiXiXiXiXuXiXiXnXbX0 0 nX0 nXnXq 0 nXq 0 nX0 q nXq vXq mXMXMXq mXmXmXmX",
"q MXmXw MXw w mXMXmXw L.w w mXL.e e MXnXyXiXiXiXyXyXyXiXiXuXiXiXuXuXiXuXpXvX0 0 nXnX0 0 nXnX0 q q nXq MXMXq vXq MXmXMXMXmXw mXMX",
"MXq MXMXw w mXMXMXMXmXw L.L.L.e e MXnXvXyXiXuXiXyXuXuXiXuXuXiXiXiXuXiXpXpXvXnX0 nX0 q 0 0 nXq nXnXq nXq MXq vXq MXmXmXmXMXmXw mX",
"mXMXMXw mXw mXMXmXw L.w L.L.e e MXnXvXyXyXuXiXyXiXiXiXiXuXuXuXuXiXiXpXaXaXvXnXnX0 0 nXnXq 0 nX0 nXnXq MXq vXbXMXMXq q MXmXw mXMX",
"q w mXw MXL.w L.mXMXmXL.L.e e MXnXyXiXiXuXiXuXyXiXpXpXpXiXiXuXiXuXuXiXaXaXvXvXq nXnX0 q nXq MXMXMXMXq q vXbXbXMXMXMXmXmXw mXq q ",
"MXmXw L.MXmXL.w L.L.L.e e e MXnXyXyXuXiXiXuXiXuXiXiXpXpXpXiXpXiXiXpXiXaXaXvX9 q q MXMXMXMXMXMXq nXnXvXvXbX8 8 vXmXmXmXw mXw w MX",
"MXmXw w L.L.e e e e e w MXMXnXvXuXyXyXuXiXiXiXiXiXuXiXpXpXpXiXpXpXiXpXaXaXvXbXvXq q q nXnXvXvXvXbXbXbXbX8 7 6 vXL.L.w w mXMXw mX",
"mXw L.L.e e e L.w w MXMXnXvXvXbXiXuXuXiXiXpXpXiXuXuXiXiXpXiXpXiXaXpXpXaXpXvXbXbXvXvXvXvXvXvXvXvXvXvXbXbX7 6 7 bXnXL.L.w w mXw mX",
"w L.e e e w MXMXnXnXnXnXvXbXbXbXiXiXuXuXiXpXiXpXpXpXpXiXiXuXiXpXpXaXaXaXq 9 8 8 8 bXvXvXvXvXvXvXvXvX0 nXbX7 7 8 vXnXL.L.w mXw w ",
"L.e e w MXMXMXnX0 0 0 0 0 0 9 8 nXiXiXiXpXiXuXiXpXpXiXiXuXiXuXiXpXpXaXaXnXbX8 bXvXvXvX0 0 nXvXvXvXvXnXq 0 vXvXbXbXnXL.L.L.L.L.L.",
"L.e MXMXnX0 0 0 vXvXvXvXvX0 0 0 9 pXpXpXpXiXiXuXiXpXuXiXiXuXiXpXiXpXaXq vXbXvXvXnX0 0 nXnXvXvXvX0 nXq q 0 0 0 0 bXvXnXL.L.L.e e ",
"w MXMXnX0 vXvXvXvXnX0 vXnXvXnXnX0 nXpXpXiXpXiXpXiXaXpXpXiXiXpXiXpXpXq vXbXvXvXnXnXnXnXnX0 vXnX0 nXq nXnXnXnXnXnXnXbXvXnXL.L.e e ",
"MXnXnX0 vXvXvXvX0 vX0 nX0 0 q nX0 9 nXaXpXiXiXiXpXaXpXiXpXpXpXpXaXq vXbXvXvX0 0 0 nXq q nX0 nX0 q nXnXq nX0 nXnX0 0 bXvXvXnXe e ",
"vXvX0 vXvX0 0 0 nXvXnX0 nX0 nXq nX0 bXnXpXaXpXpXiXaXaXpXaXaXaXaXnXvXbX0 nXnXnXnXnXq q q 0 nX0 nXnXnX0 nXnX0 0 nXvXvXq bXvXvXvXvX",
"vX0 0 0 vXnX0 nX0 0 nXnX0 0 q nXnX0 9 bXnXpXaXaXaXaXaXaXaXq nXvX9 bXnXnX0 nXnXnX0 0 nXq nXq nXq nX0 nX0 nXnX0 0 0 vXnXq 8 bXvXvX",
"8 nXnXnX0 nX0 0 nXq nXq q q nX0 0 nXq 8 vXnXpXaXpXpXq nXvXvX9 9 bXvXvX0 vXvXvXnXnXnX0 nXnXnXnX0 0 0 0 0 nXnXnXnXq nX0 q vX8 8 8 ",
"8 q q q nXnXnX0 nXnXnX0 nXnXq nX0 nXq bX9 vXnXnXnXnXvXvX9 bXbXbXvXvX0 vXvX0 0 nX0 0 nX0 nXnXq 0 0 0 0 nXq 0 0 0 nXq q q w 8 8 8 ",
"8 9 MXMXMXq nXnXnXnX0 0 nX0 q q q nXq 9 vXvXvXvXvXvX9 bXbX7 8 bXvX0 vXvX0 0 nXnXnXnX0 nX0 nXnXnX0 0 nXnXnX0 nX0 nXnXq q w vX8 8 ",
"8 8 9 9 0 q q nXq nXq nX0 nXq q q q q vXvX9 bXbXbXbXbX7 7 7 8 nX0 0 vXvXnXnXnX0 nXnXnX0 nXnXq nXnX0 nXq 0 nX0 nX0 0 nXq w vX8 8 ",
"8 8 8 7 8 9 0 q nXq nXq nXq nXq MXMXnXvX9 bX8 8 8 7 7 7 7 8 9 nX0 0 0 0 nXq q nX0 0 nXnXnXnXnXq nXnXq q nX0 nXnXq nXq w w vX8 8 ",
"yXyX9 8 7 8 9 0 q nXq nXq MXMXMXq nX0 9 9 9 0 iXiXiXiXpX0 9 0 nXnXnXnXnXq q nXvXvXnX0 nX0 0 0 nXq q q nXq nX0 q nXq w w nXvX8 9 ",
"yXuXyXuX9 9 0 nXnXq MXMXMXMXq nX0 0 0 iXiXiXiXiXiXiXpXpXaX0 0 vXnX0 0 q q q nXvXvX0 nX0 0 nXvXnXq MXq MXnXq q nXq w w nXvX9 yXyX",
"uXiXyXyXyXiX0 nXnX0 MXMXMXq nXq pXpXiXiXiXiXpXaXpXaXpXaXpXaX0 vXq nXnXnXq nXq nX0 nXnX0 nXnXnXnXnXq MXq MXnXq q w w nXvXuXuXyXyX",
"yXyXyXiXuXuXiXnX0 9 nXnXnXq pXpXpXiXiXiXiXpXpXaXaXpXpXpXaXaXaX9 vXq q q nXq nXnXnXnX0 nX0 nXq nXq nXMXw MXw MXMXMXnXvXuXuXyXyXyX",
"iXuXuXiXuXuXiXiX9 9 9 q pXpXpXiXiXiXiXpXiXiXpXpXpXpXiXpXpXpXaX0 8 q q nX0 0 nX0 nX0 q 0 nXq nXq nXq w MXw MXw MXnXvXuXuXyXyXuXuX",
"uXiXuXuXiXiXpXpX0 0 nXiXiXiXiXpXpXpXpXaXpXiXiXiXpXpXpXpXpXpXaXaX9 vXw q nX0 nXq nXq nXnXq q q MXMXMXMXw w w nXvXvX9 uXyXyXiXuXiX",
"uXiXiXpXpXpXpXpX0 nXnXiXiXiXpXaXiXiXpXpXiXpXpXaXpXpXaXaXpXaXkXaX0 9 vXw q nXnXnXq q MXw w w w w w w w MXnXnXvXbXbXuXyXyXyXyXiXuX",
"uXuXiXuXiXpXpXpXnXnXiXiXiXpXaXpXiXiXpXaXpXpXaXkXaXaXpXaXkXaXaXkXkX0 9 vXq q MXMXMXw w MXMXnXnXnXnXnXnXvXvXvXbX8 8 yXyXuXyXyXiXiX",
"iXiXiXuXpXpXpXq nXiXiXiXpXaXaXpXaXpXpXaXaXpXkXaXkXaXaXkXaXkXkXaXaXkX0 9 vXnXw w w MXMXnXvXq q q q q q q 8 bX8 7 7 yXuXyXuXuXiXpX",
"iXpXpXiXiXpXpXnXnXiXiXpXpXaXpXkXaXpXaXaXkXaXaXkXkXkXkXkXkXaXkXkXaXkXkX0 9 bXvXnXnXnXvXnXnX0 0 0 0 0 0 0 nX9 bX7 7 yXuXuXuXiXpXuX",
"iXiXpXpXpXpXq nXpXiXaXpXaXpXpXkXaXaXkXkXaXaXpXkXaXaXkXkXaXaXaXkXkXaXkXkX0 9 8 8 9 nXnX0 0 0 nXnXnXMXnXq q q MXbXbX9 uXiXiXiXiXuX",
"iXpXiXiXpXpXnX0 pXiXpXpXaXaXaXaXkXaXaXkXkXaXkXaXaXaXaXkXkXaXkXpXaXaXkXkX0 9 8 9 nXnX0 0 0 nXq nXq q MXnXq MXMXvX8 9 uXiXuXuXpXiX",
"iXiXiXpXpXq 0 pXiXiXiXiXpXaXaXaXkXaXpXpXpXaXkXaXaXaXaXaXkXaXaXkXpXkXkXkX0 9 9 nX0 0 0 nXnXq q nXnXq MXnXnXq MXMX8 9 nXpXiXiXpXpX",
"pXpXpXpXq nX0 pXiXiXiXpXpXaXkXkXkXaXpXpXaXaXkXkXaXaXaXaXsXaXaXkXkXkXkXkX0 9 0 nX0 nX0 nXq MXMXnXq MXMXq nXq MXMXMX8 0 pXpXpXpXpX",
"pXpXq nXnX0 0 pXpXpXiXpXpXpXpXpXkXaXaXaXpXaXkXkXkXkXkXsXsXkXkXkXkXaXkXkX0 9 nX0 nXnXnXq MXMXMXnXq MXMXq q q q MXMX8 9 nXq pXpXpX",
"nXnXnXnX0 0 0 pXpXaXaXaXpXiXiXpXaXkXaXpXpXaXaXaXsXsXsXsXsXsXsXkXaXkXkXkX0 9 nX0 0 0 nXMXMXq MXnXq q MXq MXMXq MXMX8 8 9 0 nXnXnX",
"nXnX0 0 0 0 0 pXpXaXaXkXpXiXiXpXpXkXkXaXaXaXaXkXkXkXkXkXkXsXsXkXaXkXkXw q 9 nXnXnXnXq MXq nXq q nXq MXMXMXMXMXMXMX8 8 8 9 0 0 nX",
"nXnXnXq MX0 0 pXpXaXaXaXaXpXpXpXaXaXkXkXkXkXkXkXkXaXkXaXaXkXsXsXkXsXsXw q 9 0 0 nXq MXMXq nXnXq MXMXMXMXMXq MXMXMX8 9 9 nXnXnXnX",
"q q q q q mX0 pXpXaXkXaXkXaXpXpXaXkXkXkXaXkXkXkXaXkXaXaXaXkXsXsXsXsXsXw q 9 nXnXnXq q nXq q nXq MXq nXq MXMXMXMX0 9 nXnXnXnXq q ",
"MXq q MXmXmX0 pXpXaXaXaXkXkXaXaXkXkXaXkXkXkXkXkXkXkXaXkXkXsXsXsXsXsXsXw q 9 nXq q nXnXq q MXMXMXq nXnXq MXMXMXnX9 nXnXq mXmXq mX",
"mXMXMXmXmXw 0 0 pXpXaXaXaXaXkXkXkXkXaXaXaXkXkXkXkXkXkXkXkXkXkXsXsXsXsXw q 9 0 q MXq q q q MXMXq nXq nXq MXMXnX0 nXnXq MXMXmXMXmX",
"w w w w mXw L.0 pXaXaXaXaXkXkXkXkXaXaXkXkXkXaXaXaXkXkXkXaXaXaXkXsXsXsXw q 9 9 q MXMXMXq MXMXq nXq nXq MXMXnX0 9 nXnXq MXmXmXw w ",
"mXMXMXmXw w L.0 0 pXpXaXpXkXkXkXkXkXaXaXkXkXaXaXaXkXaXaXaXkXkXkXsXsXw w q 9 9 0 MXMXMXMXMXq nXnXnXMXMXMXMXnX0 q q q MXmXw MXMXw "
};
